<?xml version="1.0" encoding="UTF-8"?>
<svg id="Capa_1" xmlns="http://www.w3.org/2000/svg" viewBox="0 0 180.31 180.31">
  <defs>
    <style>
      .cls-1 {
        fill: #fff3e1;
      }

      .cls-2 {
        fill: #232323;
      }
    </style>
  </defs>
  <g>
    <path class="cls-1" d="M173.36,37.19h-16.32v8.13h16.32v-8.13Z"/>
    <path class="cls-1" d="M165.17,61.64h-8.13v8.13h8.13v-8.13Z"/>
    <path class="cls-1" d="M165.17,12.69h-8.13v8.19h8.13v-8.19Z"/>
    <path class="cls-1" d="M157.04,53.46h-8.19v8.19h8.19v-8.19Z"/>
    <path class="cls-1" d="M157.04,20.88h-8.19v8.13h8.19v-8.13Z"/>
    <path class="cls-1" d="M140.72,37.19h-8.13v16.26h8.13v-16.26Z"/>
    <path class="cls-1" d="M140.72,4.56h-8.13v16.32h8.13V4.56Z"/>
    <path class="cls-1" d="M132.59,53.46h-24.5v8.19h24.5v-8.19Z"/>
    <path class="cls-1" d="M124.4,20.88h-8.13v8.13h8.13v-8.13Z"/>
    <path class="cls-1" d="M116.27,12.69h-8.19v8.19h8.19v-8.19Z"/>
    <path class="cls-1" d="M108.09,45.32h-8.13v8.13h8.13v-8.13Z"/>
    <path class="cls-1" d="M99.96,37.19h-8.13v8.13h8.13v-8.13Z"/>
    <path class="cls-1" d="M91.82,29.01h-24.45v8.19h24.45v-8.19Z"/>
    <path class="cls-1" d="M59.19,53.46h-16.32v16.32h-16.26v8.13h-8.19v8.19h-8.13v16.32H2.16v32.58h8.13v16.32h8.13v8.13h8.19v8.19h16.26v8.13h40.77v-8.13h16.32v-8.19h8.13v-8.13h8.19v-16.32h8.13v-32.58h-8.13v-16.32h-8.19v-8.19h-8.13v-8.13h-16.32v-16.32h-16.26v-16.26h-8.19v16.26Z"/>
  </g>
  <g>
    <path class="cls-2" d="M173.36,37.19h-16.32v8.13h16.32v-8.13Z"/>
    <path class="cls-2" d="M165.17,61.64h-8.13v8.13h8.13v-8.13Z"/>
    <path class="cls-2" d="M165.17,12.69h-8.13v8.19h8.13v-8.19Z"/>
    <path class="cls-2" d="M157.04,53.46h-8.19v8.19h8.19v-8.19Z"/>
    <path class="cls-2" d="M157.04,20.88h-8.19v8.13h8.19v-8.13Z"/>
    <path class="cls-2" d="M140.72,37.19h-8.13v16.26h8.13v-16.26Z"/>
    <path class="cls-2" d="M140.72,4.56h-8.13v16.32h8.13V4.56Z"/>
    <path class="cls-2" d="M132.59,53.46h-24.5v8.19h24.5v-8.19Z"/>
    <path class="cls-2" d="M124.4,20.88h-8.13v8.13h8.13v-8.13Z"/>
    <path class="cls-2" d="M116.27,12.69h-8.19v8.19h8.19v-8.19Z"/>
    <path class="cls-2" d="M108.09,45.32h-8.13v8.13h8.13v-8.13Z"/>
    <path class="cls-2" d="M99.96,37.19h-8.13v8.13h8.13v-8.13Z"/>
    <path class="cls-2" d="M91.82,29.01h-24.45v8.19h24.45v-8.19Z"/>
    <path class="cls-2" d="M59.19,53.46h-16.32v16.32h-16.26v8.13h-8.19v8.19h-8.13v16.32H2.16v32.58h8.13v16.32h8.13v8.13h8.19v8.19h16.26v8.13h40.77v-8.13h16.32v-8.19h8.13v-8.13h8.19v-16.32h8.13v-32.58h-8.13v-16.32h-8.19v-8.19h-8.13v-8.13h-16.32v-16.32h-16.26v-16.26h-8.19v16.26ZM83.64,86.09h8.19v8.13h8.13v8.19h8.13v32.58h-8.13v-32.58h-8.13v-8.19h-8.19v-8.13ZM83.64,143.12h8.19v8.19h-8.19v-8.19Z"/>
  </g>
</svg>