<?xml version="1.0" encoding="UTF-8"?>
<svg id="Capa_1" xmlns="http://www.w3.org/2000/svg" viewBox="0 0 180.31 180.31">
  <defs>
    <style>
      .cls-1 {
        fill: #ffdb45;
      }

      .cls-2 {
        fill: #fff3e1;
      }

      .cls-3 {
        fill: #232323;
      }

      .cls-4 {
        fill: #ff3395;
      }
    </style>
  </defs>
  <rect class="cls-3" x="170.22" y="86.08" width="8.15" height="57.24"/>
  <rect class="cls-3" x="162.06" y="143.32" width="8.15" height="8.15"/>
  <path class="cls-2" d="M170.22,86.08v57.24h-8.15v8.15h-8.21v16.36h-8.15v-8.16h-8.21v-8.21h-8.15v-8.15h-40.88v-8.15h-8.15v-49.08h8.15v-8.15h73.6v8.15h8.15ZM153.85,110.6v-16.31h-8.15v-8.21h-16.36v8.21h-8.16v-8.21h-16.36v8.21h-8.21v16.31h8.21v8.21h8.15v8.15h8.21v8.21h8.16v-8.21h8.15v-8.15h8.21v-8.21h8.15Z"/>
  <rect class="cls-3" x="162.06" y="77.93" width="8.15" height="8.15"/>
  <polygon class="cls-3" points="162.06 151.47 162.06 175.98 145.7 175.98 145.7 167.83 153.85 167.83 153.85 151.47 162.06 151.47"/>
  <polygon class="cls-3" points="162.06 69.72 162.06 77.93 88.46 77.93 88.46 69.72 104.83 69.72 104.83 61.56 112.98 61.56 112.98 69.72 145.7 69.72 145.7 45.21 153.85 45.21 153.85 69.72 162.06 69.72"/>
  <polygon class="cls-4" points="153.85 94.29 153.85 110.6 145.7 110.6 145.7 118.8 137.5 118.8 137.5 126.95 129.34 126.95 129.34 135.16 121.19 135.16 121.19 126.95 112.98 126.95 112.98 118.8 104.83 118.8 104.83 110.6 96.62 110.6 96.62 94.29 104.83 94.29 104.83 86.08 121.19 86.08 121.19 94.29 129.34 94.29 129.34 86.08 145.7 86.08 145.7 94.29 153.85 94.29"/>
  <rect class="cls-3" x="137.5" y="159.68" width="8.21" height="8.16"/>
  <polygon class="cls-2" points="145.7 45.21 145.7 69.72 112.98 69.72 112.98 61.56 121.19 61.56 121.19 45.21 96.62 45.21 96.62 37.05 88.46 37.05 88.46 28.9 80.31 28.9 80.31 20.69 72.11 20.69 72.11 28.9 63.95 28.9 63.95 37.05 55.8 37.05 55.8 45.21 31.23 45.21 31.23 61.56 39.44 61.56 39.44 69.72 47.59 69.72 47.59 86.08 39.44 86.08 39.44 102.44 47.59 102.44 47.59 110.6 55.8 110.6 55.8 102.44 55.8 102.44 63.95 102.44 63.95 94.29 72.11 94.29 72.11 126.95 47.59 126.95 47.59 135.16 23.08 135.16 23.08 126.95 31.23 126.95 31.23 110.6 23.08 110.6 23.08 102.44 14.92 102.44 14.92 45.21 23.08 45.21 23.08 37.05 31.23 37.05 31.23 28.9 47.59 28.9 47.59 20.69 63.95 20.69 63.95 12.54 96.62 12.54 96.62 20.69 112.98 20.69 112.98 28.9 129.34 28.9 129.34 37.05 137.5 37.05 137.5 45.21 145.7 45.21"/>
  <rect class="cls-3" x="137.5" y="37.05" width="8.21" height="8.15"/>
  <rect class="cls-3" x="129.34" y="151.47" width="8.15" height="8.21"/>
  <rect class="cls-3" x="129.34" y="28.9" width="8.15" height="8.16"/>
  <rect class="cls-3" x="88.46" y="143.32" width="40.88" height="8.15"/>
  <rect class="cls-3" x="112.98" y="20.69" width="16.36" height="8.21"/>
  <polygon class="cls-3" points="121.19 45.21 121.19 61.56 112.98 61.56 112.98 53.41 88.46 53.41 88.46 37.05 96.62 37.05 96.62 45.21 121.19 45.21"/>
  <polygon class="cls-1" points="112.98 53.41 112.98 61.56 104.83 61.56 104.83 69.72 88.46 69.72 88.46 77.93 80.31 77.93 80.31 86.08 63.95 86.08 63.95 94.29 55.8 94.29 55.8 102.44 55.8 102.44 47.59 102.44 47.59 86.08 55.8 86.08 55.8 69.72 47.59 69.72 47.59 61.56 39.44 61.56 39.44 53.41 63.95 53.41 63.95 37.05 72.11 37.05 72.11 28.9 80.31 28.9 80.31 37.05 88.46 37.05 88.46 53.41 112.98 53.41"/>
  <rect class="cls-3" x="96.62" y="12.54" width="16.36" height="8.15"/>
  <rect class="cls-3" x="63.95" y="4.33" width="32.67" height="8.21"/>
  <rect class="cls-3" x="80.31" y="135.16" width="8.15" height="8.15"/>
  <rect class="cls-3" x="80.31" y="77.93" width="8.15" height="8.15"/>
  <rect class="cls-3" x="80.31" y="28.9" width="8.15" height="8.16"/>
  <polygon class="cls-3" points="80.31 86.08 80.31 135.16 47.59 135.16 47.59 126.95 72.11 126.95 72.11 94.29 63.95 94.29 63.95 86.08 80.31 86.08"/>
  <rect class="cls-3" x="72.11" y="20.69" width="8.21" height="8.21"/>
  <rect class="cls-3" x="63.95" y="28.9" width="8.15" height="8.16"/>
  <rect class="cls-3" x="55.8" y="94.29" width="8.15" height="8.16"/>
  <polygon class="cls-3" points="63.95 37.05 63.95 53.41 39.44 53.41 39.44 61.56 31.23 61.56 31.23 45.21 55.8 45.21 55.8 37.05 63.95 37.05"/>
  <rect class="cls-3" x="47.59" y="12.54" width="16.36" height="8.15"/>
  <rect class="cls-3" x="47.59" y="102.44" width="8.21" height="8.15"/>
  <rect class="cls-3" x="47.59" y="69.72" width="8.21" height="16.36"/>
  <polygon class="cls-3" points="47.59 135.16 47.59 143.32 6.72 143.32 6.72 135.16 14.92 135.16 14.92 126.95 23.07 126.95 23.08 126.95 23.08 135.16 47.59 135.16"/>
  <rect class="cls-3" x="39.44" y="86.08" width="8.15" height="16.36"/>
  <rect class="cls-3" x="39.44" y="61.56" width="8.15" height="8.16"/>
  <rect class="cls-3" x="31.23" y="20.69" width="16.36" height="8.21"/>
  <polygon class="cls-3" points="31.23 110.6 31.23 126.95 23.08 126.95 23.07 126.95 23.07 110.6 23.08 110.6 31.23 110.6"/>
  <polygon class="cls-3" points="31.23 28.9 31.23 37.05 23.08 37.05 23.07 37.05 23.07 28.9 31.23 28.9"/>
  <polygon class="cls-3" points="23.08 102.44 23.08 110.6 23.07 110.6 14.92 110.6 14.92 102.44 23.08 102.44"/>
  <polygon class="cls-3" points="23.08 37.05 23.08 45.21 14.92 45.21 14.92 37.05 23.07 37.05 23.08 37.05"/>
  <rect class="cls-3" x="6.72" y="45.21" width="8.21" height="57.24"/>
</svg>