<?xml version="1.0" encoding="UTF-8"?>
<svg id="Capa_1" xmlns="http://www.w3.org/2000/svg" viewBox="0 0 180.31 180.31">
  <defs>
    <style>
      .cls-1 {
        fill: #ffdb45;
      }

      .cls-2 {
        fill: #0200ff;
      }

      .cls-3 {
        fill: #8aff7d;
      }

      .cls-4 {
        fill: #232323;
      }

      .cls-5 {
        fill: #ff3395;
      }
    </style>
  </defs>
  <polygon class="cls-4" points="168.84 26.04 168.84 153.4 161.32 153.4 161.32 70.98 123.84 70.98 123.84 78.46 116.37 78.46 116.37 70.98 108.89 70.98 108.89 63.51 161.32 63.51 161.32 26.04 168.84 26.04"/>
  <rect class="cls-4" x="153.84" y="153.4" width="7.48" height="7.53"/>
  <polygon class="cls-3" points="161.32 70.98 161.32 153.4 153.84 153.4 153.84 160.93 26.42 160.93 26.42 153.4 18.95 153.4 18.95 70.98 26.42 70.98 26.42 78.46 48.9 78.46 48.9 115.93 56.42 115.93 56.42 123.46 63.9 123.46 63.9 130.93 71.42 130.93 71.42 138.4 108.89 138.4 108.89 130.93 116.37 130.93 116.37 123.46 123.84 123.46 123.84 115.93 131.37 115.93 131.37 78.46 123.84 78.46 123.84 70.98 161.32 70.98"/>
  <rect class="cls-4" x="153.84" y="18.51" width="7.48" height="7.53"/>
  <rect class="cls-4" x="26.42" y="160.93" width="127.42" height="7.47"/>
  <path class="cls-4" d="M153.84,11.04v7.47H63.9v45h7.52v7.47h-7.52v7.48h-7.48v-7.48h-7.52v7.48h-22.48v-7.48h-7.47v82.42h-7.48V26.04h7.48v37.47h7.47V26.04h-7.47v-7.53h7.47v-7.47h127.42ZM56.42,63.51V18.51h-7.52v45h7.52ZM41.42,63.51V18.51h-7.47v45h7.47Z"/>
  <rect class="cls-4" x="138.84" y="33.51" width="7.48" height="15"/>
  <rect class="cls-4" x="123.84" y="48.51" width="15" height="7.47"/>
  <rect class="cls-3" x="123.84" y="33.51" width="15" height="15"/>
  <rect class="cls-4" x="123.84" y="26.04" width="15" height="7.47"/>
  <rect class="cls-4" x="123.84" y="78.46" width="7.53" height="37.47"/>
  <rect class="cls-4" x="116.37" y="115.93" width="7.47" height="7.53"/>
  <rect class="cls-4" x="116.37" y="33.51" width="7.47" height="15"/>
  <rect class="cls-4" x="108.89" y="123.46" width="7.48" height="7.47"/>
  <path class="cls-4" d="M116.37,85.98v22.48h-7.48v7.47h-7.52v7.53h-22.47v-7.53h-7.48v-7.47h-7.52v-22.48h7.52v-7.52h7.48v-7.48h22.47v7.48h7.52v7.52h7.48ZM101.37,100.98v-15h-15v7.48h7.52v7.52h7.48Z"/>
  <rect class="cls-4" x="71.42" y="130.93" width="37.47" height="7.47"/>
  <rect class="cls-4" x="71.42" y="55.98" width="37.47" height="7.53"/>
  <rect class="cls-4" x="63.9" y="123.46" width="7.52" height="7.47"/>
  <rect class="cls-4" x="56.42" y="115.93" width="7.48" height="7.53"/>
  <rect class="cls-4" x="48.9" y="78.46" width="7.52" height="37.47"/>
  <rect class="cls-5" x="48.9" y="18.51" width="7.52" height="45"/>
  <rect class="cls-1" x="33.95" y="18.51" width="7.47" height="45"/>
  <rect class="cls-4" x="18.95" y="153.4" width="7.47" height="7.53"/>
  <rect class="cls-2" x="18.95" y="26.04" width="7.47" height="37.47"/>
</svg>