<?xml version="1.0" encoding="UTF-8"?>
<svg id="Capa_1" xmlns="http://www.w3.org/2000/svg" viewBox="0 0 180.31 180.31">
  <defs>
    <style>
      .cls-1 {
        fill: #232323;
      }

      .cls-2 {
        fill: #ff3395;
      }
    </style>
  </defs>
  <path class="cls-1" d="M159.64,151.36h-8.01v24.09h8.01v-24.09Z"/>
  <path class="cls-1" d="M151.63,143.35h-8.07v8.01h8.07v-8.01Z"/>
  <path class="cls-1" d="M143.56,151.36h-8.01v8.01h8.01v-8.01Z"/>
  <path class="cls-1" d="M143.56,135.28h-8.01v8.07h8.01v-8.07Z"/>
  <path class="cls-1" d="M135.55,159.37h-8.07v8.06h8.07v-8.06Z"/>
  <path class="cls-1" d="M135.55,127.27h-16.08v8.01h16.08v-8.01Z"/>
  <path class="cls-1" d="M135.55,63.02h-8.07v24.09h8.07v-24.09Z"/>
  <path class="cls-1" d="M127.49,167.44h-8.01v8.01h8.01v-8.01Z"/>
  <path class="cls-1" d="M127.49,87.11h-8.01v8.01h8.01v-8.01Z"/>
  <path class="cls-1" d="M127.49,54.95h-16.02v8.07h16.02v-8.07Z"/>
  <path class="cls-1" d="M119.47,135.28h-8.01v8.07h8.01v-8.07Z"/>
  <path class="cls-1" d="M119.47,119.21h-16.08v8.07h16.08v-8.07Z"/>
  <path class="cls-1" d="M119.47,95.12h-8.01v8.07h8.01v-8.07Z"/>
  <path class="cls-1" d="M111.46,143.35h-8.07v8.01h8.07v-8.01Z"/>
  <path class="cls-1" d="M111.46,103.18h-8.07v8.01h8.07v-8.01Z"/>
  <path class="cls-1" d="M111.46,63.02h-8.07v8.01h8.07v-8.01Z"/>
  <path class="cls-1" d="M103.4,151.36h-8.01v8.01h8.01v-8.01Z"/>
  <path class="cls-1" d="M103.4,111.2h-8.01v8.01h8.01v-8.01Z"/>
  <path class="cls-1" d="M103.4,71.03h-8.01v8.01h8.01v-8.01Z"/>
  <path class="cls-1" d="M95.38,119.21h-8.01v8.07h8.01v-8.07Z"/>
  <path class="cls-1" d="M95.38,79.04h-8.01v8.07h8.01v-8.07Z"/>
  <path class="cls-1" d="M87.37,127.27h-8.07v8.01h8.07v-8.01Z"/>
  <path class="cls-1" d="M87.37,87.11h-8.07v8.01h8.07v-8.01Z"/>
  <path class="cls-1" d="M79.31,95.12h-8.01v8.07h8.01v-8.07Z"/>
  <path class="cls-1" d="M79.31,71.03h-8.01v16.08h8.01v-16.08Z"/>
  <path class="cls-1" d="M71.29,103.18h-8.07v8.01h8.07v-8.01Z"/>
  <path class="cls-2" d="M63.23,6.77v8.01h-8.01v16.08h8.01v8.07h8.07v8.01h8.01v8.01h8.07v-8.01h8.01v-8.01h8.01v-8.07h8.07V14.78h-8.07V6.77h-16.02v8.01h-8.07V6.77h-16.08Z"/>
  <path class="cls-1" d="M71.29,63.02h-24.09v8.01h24.09v-8.01Z"/>
  <path class="cls-1" d="M55.22,95.12h-8.01v32.15h8.01v-8.07h8.01v-8.01h-8.01v-16.08Z"/>
  <path class="cls-1" d="M47.2,127.27h-8.07v8.01h8.07v-8.01Z"/>
  <path class="cls-1" d="M47.2,71.03h-8.07v24.09h8.07v-24.09Z"/>
  <path class="cls-1" d="M39.14,135.28h-8.01v40.17h8.01v-40.17Z"/>
</svg>