<?xml version="1.0" encoding="UTF-8"?>
<svg id="Capa_1" xmlns="http://www.w3.org/2000/svg" viewBox="0 0 180.31 180.31">
  <defs>
    <style>
      .cls-1 {
        fill: #8aff7d;
      }

      .cls-2 {
        fill: #232323;
      }
    </style>
  </defs>
  <polygon class="cls-2" points="139.78 53.73 139.78 99.54 132.16 99.54 132.16 68.96 124.54 68.96 124.54 91.87 116.87 91.87 116.87 23.16 124.54 23.16 124.54 61.35 132.16 61.35 132.16 53.73 139.78 53.73"/>
  <polygon class="cls-2" points="132.16 153.02 132.16 168.26 48.16 168.26 48.16 153.02 63.44 153.02 63.44 145.35 86.35 145.35 86.35 122.45 63.44 122.45 63.44 114.83 116.87 114.83 116.87 122.45 93.96 122.45 93.96 145.35 116.87 145.35 116.87 153.02 132.16 153.02"/>
  <rect class="cls-2" x="124.54" y="99.54" width="7.62" height="7.62"/>
  <rect class="cls-2" x="116.87" y="107.16" width="7.67" height="7.67"/>
  <rect class="cls-2" x="109.25" y="91.87" width="7.62" height="7.67"/>
  <path class="cls-1" d="M116.87,23.16v68.71h-7.62v7.67h-38.19v-7.67h-7.62V23.16h7.62v-7.62h38.19v7.62h7.62ZM109.25,53.73v-7.67h-7.62v7.67h7.62ZM109.25,38.44v-7.67h-7.62v7.67h7.62ZM93.96,61.35v-7.62h-7.62v7.62h7.62ZM93.96,46.06v-7.62h-7.62v7.62h7.62ZM93.96,30.77v-7.62h-7.62v7.62h7.62ZM78.68,53.73v-7.67h-7.62v7.67h7.62ZM78.68,38.44v-7.67h-7.62v7.67h7.62Z"/>
  <rect class="cls-2" x="109.25" y="15.53" width="7.62" height="7.62"/>
  <rect class="cls-2" x="71.06" y="99.54" width="38.19" height="7.62"/>
  <rect class="cls-2" x="101.64" y="46.06" width="7.62" height="7.67"/>
  <rect class="cls-2" x="101.64" y="30.77" width="7.62" height="7.67"/>
  <rect class="cls-2" x="71.06" y="7.87" width="38.19" height="7.67"/>
  <rect class="cls-2" x="86.35" y="53.73" width="7.62" height="7.62"/>
  <rect class="cls-2" x="86.35" y="38.44" width="7.62" height="7.62"/>
  <rect class="cls-2" x="86.35" y="23.16" width="7.62" height="7.62"/>
  <rect class="cls-2" x="71.06" y="46.06" width="7.62" height="7.67"/>
  <rect class="cls-2" x="71.06" y="30.77" width="7.62" height="7.67"/>
  <rect class="cls-2" x="63.44" y="91.87" width="7.62" height="7.67"/>
  <rect class="cls-2" x="63.44" y="15.53" width="7.62" height="7.62"/>
  <rect class="cls-2" x="55.77" y="107.16" width="7.67" height="7.67"/>
  <polygon class="cls-2" points="63.44 23.16 63.44 91.87 55.77 91.87 55.77 68.96 48.16 68.96 48.16 99.54 40.53 99.54 40.53 53.73 48.16 53.73 48.16 61.35 55.77 61.35 55.77 23.16 63.44 23.16"/>
  <rect class="cls-2" x="48.16" y="99.54" width="7.62" height="7.62"/>
</svg>