<?xml version="1.0" encoding="UTF-8"?>
<svg id="Capa_1" xmlns="http://www.w3.org/2000/svg" viewBox="0 0 180.31 180.31">
  <defs>
    <style>
      .cls-1 {
        fill: #ffdb45;
      }

      .cls-2 {
        fill: #ff9fd1;
      }

      .cls-3 {
        fill: #0200ff;
      }

      .cls-4 {
        fill: #3386ff;
      }

      .cls-5 {
        fill: #fff3e1;
      }

      .cls-6 {
        fill: #232323;
      }

      .cls-7 {
        fill: #ff3395;
      }

      .cls-8 {
        fill: #ffe98d;
      }
    </style>
  </defs>
  <path class="cls-5" d="M157.98,85.35v-8.3h8.25v-8.25h8.3v-8.25h-8.3v-8.3h-8.25v-8.25h-8.3v-8.3h-8.25v-8.25h-8.25v-8.25h-8.3v8.25h-8.25v8.25h-8.25v8.3h-8.3v8.25h-8.25V10.91h-8.3V2.66H17.39v8.25h-8.25v140.58h8.25v8.25h8.3v8.25h8.25v8.3h132.28v-8.3h8.3v-66.14h-8.3v-8.25h-16.55v-8.25h8.3ZM50.51,143.21h-16.52v-16.52h16.52v16.52Z"/>
  <g>
    <rect class="cls-6" x="166.23" y="101.84" width="8.3" height="66.14"/>
    <rect class="cls-6" x="166.23" y="60.55" width="8.3" height="8.25"/>
    <rect class="cls-6" x="33.95" y="167.99" width="132.28" height="8.3"/>
    <path class="cls-5" d="M166.23,101.84v66.14H33.95v-8.25h-8.25v-8.25h-8.3v-33.1h8.3v-8.25h8.25v-8.3h132.28ZM157.98,159.74v-49.59h-41.35v49.59h41.35ZM108.39,159.74v-49.59h-41.34v49.59h41.34ZM58.74,143.19v-16.49h-8.25v-8.3h-16.55v8.3h-8.25v16.49h8.25v8.3h16.55v-8.3h8.25Z"/>
    <polygon class="cls-6" points="166.23 93.6 166.23 101.84 33.95 101.84 33.95 110.14 25.7 110.14 25.7 93.6 58.74 93.6 58.74 85.35 67.04 85.35 67.04 93.6 75.29 93.6 75.29 85.35 83.53 85.35 83.53 77.05 91.84 77.05 91.84 85.35 100.09 85.35 100.09 93.6 124.88 93.6 124.88 85.35 116.63 85.35 116.63 77.05 108.39 77.05 108.39 68.8 100.09 68.8 100.09 60.55 108.39 60.55 108.39 52.25 116.63 52.25 116.63 44 124.88 44 124.88 35.7 133.18 35.7 133.18 44 141.43 44 141.43 52.25 149.68 52.25 149.68 60.55 157.98 60.55 157.98 68.8 149.68 68.8 149.68 77.05 141.43 77.05 141.43 85.35 133.18 85.35 133.18 93.6 141.43 93.6 141.43 85.35 149.68 85.35 149.68 93.6 166.23 93.6"/>
    <rect class="cls-6" x="157.98" y="68.8" width="8.25" height="8.25"/>
    <rect class="cls-6" x="157.98" y="52.25" width="8.25" height="8.3"/>
    <path class="cls-3" d="M157.98,110.14v49.59h-41.35v-49.59h41.35ZM149.68,151.49v-33.1h-24.79v33.1h24.79Z"/>
    <rect class="cls-6" x="149.68" y="77.05" width="8.3" height="8.3"/>
    <rect class="cls-6" x="149.68" y="44" width="8.3" height="8.25"/>
    <rect class="cls-3" x="124.88" y="118.39" width="24.79" height="33.1"/>
    <rect class="cls-6" x="141.43" y="35.7" width="8.25" height="8.3"/>
    <rect class="cls-6" x="133.18" y="27.46" width="8.25" height="8.25"/>
    <rect class="cls-6" x="124.88" y="19.21" width="8.3" height="8.25"/>
    <rect class="cls-6" x="116.63" y="27.46" width="8.25" height="8.25"/>
    <rect class="cls-6" x="108.39" y="35.7" width="8.25" height="8.3"/>
    <path class="cls-4" d="M108.39,110.14v49.59h-41.34v-49.59h41.34ZM100.09,151.49v-33.1h-24.8v33.1h24.8Z"/>
    <rect class="cls-6" x="100.09" y="44" width="8.3" height="8.25"/>
    <rect class="cls-4" x="75.29" y="118.39" width="24.8" height="33.1"/>
    <polygon class="cls-6" points="100.09 52.25 100.09 60.55 91.84 60.55 91.84 68.8 83.53 68.8 83.53 10.91 91.84 10.91 91.84 52.25 100.09 52.25"/>
    <rect class="cls-6" x="75.29" y="68.8" width="8.25" height="8.25"/>
    <path class="cls-5" d="M83.53,10.91v57.89h-8.25v8.25h-8.25v-8.25H25.7v16.55h8.25v-8.3h33.1v8.3h-8.3v8.25H25.7v16.55h-8.3V10.91h66.14ZM75.29,60.55V19.21H25.7v41.35h49.59Z"/>
    <rect class="cls-6" x="17.39" y="2.66" width="66.14" height="8.25"/>
    <rect class="cls-6" x="67.04" y="77.05" width="8.25" height="8.3"/>
    <path class="cls-7" d="M75.29,19.21v41.35H25.7V19.21h49.59ZM67.04,52.25v-24.79h-33.1v24.79h33.1Z"/>
    <polygon class="cls-2" points="67.04 68.8 67.04 77.05 33.95 77.05 33.95 85.35 25.7 85.35 25.7 68.8 67.04 68.8"/>
    <rect class="cls-7" x="33.95" y="27.46" width="33.1" height="24.79"/>
    <rect class="cls-6" x="50.49" y="126.7" width="8.25" height="16.49"/>
    <rect class="cls-6" x="33.95" y="143.19" width="16.55" height="8.3"/>
    <rect class="cls-6" x="33.95" y="118.39" width="16.55" height="8.3"/>
    <rect class="cls-6" x="25.7" y="159.74" width="8.25" height="8.25"/>
    <rect class="cls-6" x="25.7" y="126.7" width="8.25" height="16.49"/>
    <rect class="cls-6" x="17.39" y="151.49" width="8.3" height="8.25"/>
    <polygon class="cls-6" points="25.7 110.14 25.7 118.39 17.39 118.39 17.39 151.49 9.15 151.49 9.15 10.91 17.39 10.91 17.39 110.14 25.7 110.14"/>
  </g>
  <g>
    <polyline class="cls-8" points="100.11 93.62 100.11 85.38 91.87 85.38 91.87 77.07 83.57 77.07 83.57 85.38 75.32 85.38 75.32 93.62 75.31 93.62 75.31 93.62"/>
    <polyline class="cls-1" points="133.21 93.62 133.21 85.38 141.46 85.38 141.46 77.07 149.71 77.07 149.71 68.83 158.01 68.83 158.01 60.58 149.71 60.58 149.71 52.28 141.46 52.28 141.46 44.03 133.21 44.03 133.21 35.73 124.91 35.73 124.91 44.03 116.66 44.03 116.66 52.28 108.42 52.28 108.42 60.58 100.11 60.58 100.11 68.83 108.42 68.83 108.42 77.07 116.66 77.07 116.66 85.38 124.91 85.38 124.91 93.62"/>
  </g>
</svg>