<?xml version="1.0" encoding="UTF-8"?>
<svg id="Capa_1" xmlns="http://www.w3.org/2000/svg" viewBox="0 0 180.31 180.31">
  <defs>
    <style>
      .cls-1 {
        fill: #0200ff;
      }

      .cls-2 {
        fill: #fff3e1;
      }

      .cls-3 {
        fill: #232323;
      }
    </style>
  </defs>
  <rect class="cls-3" x="163.03" y="17.28" width="7.65" height="23"/>
  <rect class="cls-3" x="155.33" y="40.28" width="7.7" height="15.35"/>
  <polygon class="cls-1" points="163.03 17.28 163.03 40.28 155.33 40.28 155.33 55.63 147.68 55.63 147.68 70.98 139.98 70.98 139.98 86.33 132.33 86.33 132.33 101.63 124.68 101.63 124.68 116.98 109.33 116.98 109.33 93.98 116.98 93.98 116.98 78.63 124.68 78.63 124.68 63.33 132.33 63.33 132.33 47.98 139.98 47.98 139.98 32.63 147.68 32.63 147.68 17.28 163.03 17.28"/>
  <rect class="cls-3" x="147.68" y="9.63" width="15.35" height="7.65"/>
  <rect class="cls-3" x="147.68" y="55.63" width="7.65" height="15.35"/>
  <rect class="cls-3" x="139.98" y="70.98" width="7.7" height="15.35"/>
  <rect class="cls-3" x="139.98" y="17.28" width="7.7" height="15.35"/>
  <rect class="cls-3" x="132.33" y="86.33" width="7.65" height="15.3"/>
  <rect class="cls-3" x="132.33" y="32.63" width="7.65" height="15.35"/>
  <rect class="cls-3" x="124.68" y="124.68" width="7.65" height="23"/>
  <rect class="cls-3" x="124.68" y="101.63" width="7.65" height="15.35"/>
  <rect class="cls-3" x="124.68" y="47.98" width="7.65" height="15.35"/>
  <polygon class="cls-3" points="124.68 147.68 124.68 155.34 116.98 155.34 116.98 162.99 101.68 162.99 101.68 170.69 17.28 170.69 17.28 162.99 55.63 162.99 55.63 155.34 63.33 155.34 63.33 147.68 70.98 147.68 70.98 124.68 78.63 124.68 78.63 139.98 86.33 139.98 86.33 132.33 93.98 132.33 93.98 139.98 101.68 139.98 101.68 147.68 109.33 147.68 109.33 139.98 116.98 139.98 116.98 147.68 124.68 147.68"/>
  <polygon class="cls-2" points="124.68 124.68 124.68 147.68 116.98 147.68 116.98 139.98 109.33 139.98 109.33 147.68 101.68 147.68 101.68 139.98 93.98 139.98 93.98 132.33 86.33 132.33 86.33 139.98 78.63 139.98 78.63 124.68 86.33 124.68 86.33 116.98 109.33 116.98 109.33 124.68 124.68 124.68"/>
  <rect class="cls-3" x="109.33" y="116.98" width="15.35" height="7.7"/>
  <rect class="cls-3" x="116.98" y="63.33" width="7.7" height="15.3"/>
  <rect class="cls-3" x="109.33" y="78.63" width="7.65" height="15.35"/>
  <polygon class="cls-3" points="109.33 93.98 109.33 116.98 86.33 116.98 86.33 109.33 101.68 109.33 101.68 93.98 109.33 93.98"/>
  <rect class="cls-3" x="78.63" y="116.98" width="7.7" height="7.7"/>
  <rect class="cls-3" x="78.63" y="70.98" width="7.7" height="7.65"/>
  <rect class="cls-3" x="70.98" y="78.63" width="7.65" height="7.7"/>
  <rect class="cls-3" x="17.28" y="63.33" width="61.35" height="7.65"/>
  <rect class="cls-3" x="47.98" y="86.33" width="23" height="7.65"/>
  <rect class="cls-3" x="55.63" y="124.68" width="7.7" height="7.65"/>
  <rect class="cls-3" x="47.98" y="132.33" width="7.65" height="7.65"/>
  <rect class="cls-3" x="32.63" y="116.98" width="23" height="7.7"/>
  <polygon class="cls-3" points="47.98 139.98 47.98 147.68 24.98 147.68 24.98 147.68 24.98 139.98 47.98 139.98"/>
  <rect class="cls-3" x="32.63" y="93.98" width="15.35" height="7.65"/>
  <rect class="cls-3" x="24.98" y="101.63" width="7.65" height="15.35"/>
  <polygon class="cls-3" points="24.98 147.68 24.98 155.34 17.28 155.34 17.28 147.68 24.98 147.68 24.98 147.68"/>
  <rect class="cls-3" x="9.63" y="155.34" width="7.65" height="7.65"/>
</svg>