<?xml version="1.0" encoding="UTF-8"?>
<svg id="Capa_1" data-name="Capa 1" xmlns="http://www.w3.org/2000/svg" viewBox="0 0 32 32">
  <defs>
    <style>
      .cls-1 {
        fill: #8aff7d;
      }

      .cls-2 {
        fill: #232323;
      }
    </style>
  </defs>
  <g>
    <polygon class="cls-2" points="26.49 31.15 27.29 28.9 28.89 25.7 28.89 14.5 25.69 12.9 20.89 11.3 17.69 9.7 16.09 4.9 12.89 4.9 11.29 19.3 8.09 16.1 4.89 16.1 4.89 19.3 6.49 20.9 8.09 24.1 9.69 25.7 11.29 27.3 12.89 27.3 12.89 30.5 26.49 31.15"/>
    <rect class="cls-2" x="12.89" y="3.3" width="1.6" height="1.6"/>
    <rect class="cls-2" x="11.29" y="4.9" width="1.6" height="1.6"/>
    <rect class="cls-2" x="11.29" y="6.5" width="1.6" height="1.6"/>
    <rect class="cls-2" x="11.29" y="8.1" width="1.6" height="1.6"/>
    <rect class="cls-2" x="11.29" y="9.7" width="1.6" height="1.6"/>
    <rect class="cls-2" x="11.29" y="11.3" width="1.6" height="1.6"/>
    <rect class="cls-2" x="11.29" y="12.9" width="1.6" height="1.6"/>
    <rect class="cls-2" x="11.29" y="14.5" width="1.6" height="1.6"/>
    <rect class="cls-2" x="11.29" y="16.1" width="1.6" height="1.6"/>
    <rect class="cls-2" x="11.29" y="17.7" width="1.6" height="1.6"/>
    <rect class="cls-2" x="11.29" y="19.3" width="1.6" height="1.6"/>
    <rect class="cls-2" x="9.69" y="17.7" width="1.6" height="1.6"/>
    <rect class="cls-2" x="8.09" y="16.1" width="1.6" height="1.6"/>
    <rect class="cls-2" x="6.49" y="14.5" width="1.6" height="1.6"/>
    <rect class="cls-2" x="4.89" y="14.5" width="1.6" height="1.6"/>
    <rect class="cls-2" x="3.29" y="16.1" width="1.6" height="1.6"/>
    <rect class="cls-2" x="3.29" y="17.7" width="1.6" height="1.6"/>
    <rect class="cls-2" x="4.89" y="19.3" width="1.6" height="1.6"/>
    <rect class="cls-2" x="6.49" y="20.9" width="1.6" height="1.6"/>
    <rect class="cls-2" x="6.49" y="22.5" width="1.6" height="1.6"/>
    <rect class="cls-2" x="8.09" y="24.1" width="1.6" height="1.6"/>
    <rect class="cls-2" x="9.69" y="25.7" width="1.6" height="1.6"/>
    <rect class="cls-2" x="11.29" y="27.3" width="1.6" height="1.6"/>
    <rect class="cls-2" x="11.29" y="28.9" width="1.6" height="1.6"/>
    <rect class="cls-2" x="12.89" y="30.5" width="1.6" height="1.6"/>
    <rect class="cls-2" x="14.49" y="30.5" width="1.6" height="1.6"/>
    <rect class="cls-2" x="16.09" y="30.5" width="1.6" height="1.6"/>
    <rect class="cls-2" x="17.69" y="30.5" width="1.6" height="1.6"/>
    <rect class="cls-2" x="19.29" y="30.5" width="1.6" height="1.6"/>
    <rect class="cls-2" x="20.89" y="30.5" width="1.6" height="1.6"/>
    <rect class="cls-2" x="22.49" y="30.5" width="1.6" height="1.6"/>
    <rect class="cls-2" x="24.09" y="30.5" width="1.6" height="1.6"/>
    <rect class="cls-2" x="25.69" y="30.5" width="1.6" height="1.6"/>
    <rect class="cls-2" x="25.69" y="28.9" width="1.6" height="1.6"/>
    <rect class="cls-2" x="27.29" y="27.3" width="1.6" height="1.6"/>
    <rect class="cls-2" x="27.29" y="25.7" width="1.6" height="1.6"/>
    <rect class="cls-2" x="28.89" y="24.1" width="1.6" height="1.6"/>
    <rect class="cls-2" x="28.89" y="22.5" width="1.6" height="1.6"/>
    <rect class="cls-2" x="28.89" y="20.9" width="1.6" height="1.6"/>
    <rect class="cls-2" x="28.89" y="19.3" width="1.6" height="1.6"/>
    <rect class="cls-2" x="28.89" y="17.7" width="1.6" height="1.6"/>
    <rect class="cls-2" x="28.89" y="16.1" width="1.6" height="1.6"/>
    <rect class="cls-2" x="28.89" y="14.5" width="1.6" height="1.6"/>
    <rect class="cls-2" x="25.69" y="14.5" width="1.6" height="1.6"/>
    <rect class="cls-2" x="25.69" y="12.9" width="1.6" height="1.6"/>
    <rect class="cls-2" x="27.29" y="12.9" width="1.6" height="1.6"/>
    <rect class="cls-2" x="24.09" y="11.3" width="1.6" height="1.6"/>
    <rect class="cls-2" x="22.49" y="11.3" width="1.6" height="1.6"/>
    <rect class="cls-2" x="20.89" y="11.3" width="1.6" height="1.6"/>
    <rect class="cls-2" x="20.89" y="12.9" width="1.6" height="1.6"/>
    <rect class="cls-2" x="20.89" y="14.5" width="1.6" height="1.6"/>
    <rect class="cls-2" x="25.69" y="16.1" width="1.6" height="1.6"/>
    <rect class="cls-2" x="20.89" y="16.1" width="1.6" height="1.6"/>
    <rect class="cls-2" x="25.69" y="17.7" width="1.6" height="1.6"/>
    <rect class="cls-2" x="20.89" y="17.7" width="1.6" height="1.6"/>
    <rect class="cls-2" x="19.29" y="9.7" width="1.6" height="1.6"/>
    <rect class="cls-2" x="17.69" y="9.7" width="1.6" height="1.6"/>
    <rect class="cls-2" x="16.09" y="8.1" width="1.6" height="1.6"/>
    <rect class="cls-2" x="16.09" y="9.7" width="1.6" height="1.6"/>
    <rect class="cls-2" x="16.09" y="11.3" width="1.6" height="1.6"/>
    <rect class="cls-2" x="16.09" y="12.9" width="1.6" height="1.6"/>
    <rect class="cls-2" x="16.09" y="14.5" width="1.6" height="1.6"/>
    <rect class="cls-2" x="16.09" y="16.1" width="1.6" height="1.6"/>
    <rect class="cls-2" x="16.09" y="17.7" width="1.6" height="1.6"/>
    <rect class="cls-2" x="16.09" y="6.5" width="1.6" height="1.6"/>
    <rect class="cls-2" x="16.09" y="4.9" width="1.6" height="1.6"/>
    <rect class="cls-2" x="14.49" y="3.3" width="1.6" height="1.6"/>
  </g>
  <g>
    <polygon class="cls-1" points="24.89 27.95 25.69 25.7 27.29 22.5 27.29 11.3 24.09 9.7 19.29 8.1 16.09 6.5 14.49 1.7 11.29 1.7 9.69 16.1 6.49 12.9 3.29 12.9 3.29 16.1 4.89 17.7 6.49 20.9 8.09 22.5 9.69 24.1 11.29 24.1 11.29 27.3 24.89 27.95"/>
    <rect class="cls-2" x="11.29" y=".1" width="1.6" height="1.6"/>
    <rect class="cls-2" x="9.69" y="1.7" width="1.6" height="1.6"/>
    <rect class="cls-2" x="9.69" y="3.3" width="1.6" height="1.6"/>
    <rect class="cls-2" x="9.69" y="4.9" width="1.6" height="1.6"/>
    <rect class="cls-2" x="9.69" y="6.5" width="1.6" height="1.6"/>
    <rect class="cls-2" x="9.69" y="8.1" width="1.6" height="1.6"/>
    <rect class="cls-2" x="9.69" y="9.7" width="1.6" height="1.6"/>
    <rect class="cls-2" x="9.69" y="11.3" width="1.6" height="1.6"/>
    <rect class="cls-2" x="9.69" y="12.9" width="1.6" height="1.6"/>
    <rect class="cls-2" x="9.69" y="14.5" width="1.6" height="1.6"/>
    <rect class="cls-2" x="9.69" y="16.1" width="1.6" height="1.6"/>
    <rect class="cls-2" x="8.09" y="14.5" width="1.6" height="1.6"/>
    <rect class="cls-2" x="6.49" y="12.9" width="1.6" height="1.6"/>
    <rect class="cls-2" x="4.89" y="11.3" width="1.6" height="1.6"/>
    <rect class="cls-2" x="3.29" y="11.3" width="1.6" height="1.6"/>
    <rect class="cls-2" x="1.69" y="12.9" width="1.6" height="1.6"/>
    <rect class="cls-2" x="1.69" y="14.5" width="1.6" height="1.6"/>
    <rect class="cls-2" x="3.29" y="16.1" width="1.6" height="1.6"/>
    <rect class="cls-2" x="4.89" y="17.7" width="1.6" height="1.6"/>
    <rect class="cls-2" x="4.89" y="19.3" width="1.6" height="1.6"/>
    <rect class="cls-2" x="6.49" y="20.9" width="1.6" height="1.6"/>
    <rect class="cls-2" x="8.09" y="22.5" width="1.6" height="1.6"/>
    <rect class="cls-2" x="9.69" y="24.1" width="1.6" height="1.6"/>
    <rect class="cls-2" x="9.69" y="25.7" width="1.6" height="1.6"/>
    <rect class="cls-2" x="11.29" y="27.3" width="1.6" height="1.6"/>
    <rect class="cls-2" x="12.89" y="27.3" width="1.6" height="1.6"/>
    <rect class="cls-2" x="14.49" y="27.3" width="1.6" height="1.6"/>
    <rect class="cls-2" x="16.09" y="27.3" width="1.6" height="1.6"/>
    <rect class="cls-2" x="17.69" y="27.3" width="1.6" height="1.6"/>
    <rect class="cls-2" x="19.29" y="27.3" width="1.6" height="1.6"/>
    <rect class="cls-2" x="20.89" y="27.3" width="1.6" height="1.6"/>
    <rect class="cls-2" x="22.49" y="27.3" width="1.6" height="1.6"/>
    <rect class="cls-2" x="24.09" y="27.3" width="1.6" height="1.6"/>
    <rect class="cls-2" x="24.09" y="25.7" width="1.6" height="1.6"/>
    <rect class="cls-2" x="25.69" y="24.1" width="1.6" height="1.6"/>
    <rect class="cls-2" x="25.69" y="22.5" width="1.6" height="1.6"/>
    <rect class="cls-2" x="27.29" y="20.9" width="1.6" height="1.6"/>
    <rect class="cls-2" x="27.29" y="19.3" width="1.6" height="1.6"/>
    <rect class="cls-2" x="27.29" y="17.7" width="1.6" height="1.6"/>
    <rect class="cls-2" x="27.29" y="16.1" width="1.6" height="1.6"/>
    <rect class="cls-2" x="27.29" y="14.5" width="1.6" height="1.6"/>
    <rect class="cls-2" x="27.29" y="12.9" width="1.6" height="1.6"/>
    <rect class="cls-2" x="27.29" y="11.3" width="1.6" height="1.6"/>
    <rect class="cls-2" x="24.09" y="11.3" width="1.6" height="1.6"/>
    <rect class="cls-2" x="24.09" y="9.7" width="1.6" height="1.6"/>
    <rect class="cls-2" x="25.69" y="9.7" width="1.6" height="1.6"/>
    <rect class="cls-2" x="22.49" y="8.1" width="1.6" height="1.6"/>
    <rect class="cls-2" x="20.89" y="8.1" width="1.6" height="1.6"/>
    <rect class="cls-2" x="19.29" y="8.1" width="1.6" height="1.6"/>
    <rect class="cls-2" x="19.29" y="9.7" width="1.6" height="1.6"/>
    <rect class="cls-2" x="19.29" y="11.3" width="1.6" height="1.6"/>
    <rect class="cls-2" x="24.09" y="12.9" width="1.6" height="1.6"/>
    <rect class="cls-2" x="19.29" y="12.9" width="1.6" height="1.6"/>
    <rect class="cls-2" x="24.09" y="14.5" width="1.6" height="1.6"/>
    <rect class="cls-2" x="19.29" y="14.5" width="1.6" height="1.6"/>
    <rect class="cls-2" x="17.69" y="6.5" width="1.6" height="1.6"/>
    <rect class="cls-2" x="16.09" y="6.5" width="1.6" height="1.6"/>
    <rect class="cls-2" x="14.49" y="4.9" width="1.6" height="1.6"/>
    <rect class="cls-2" x="14.49" y="6.5" width="1.6" height="1.6"/>
    <rect class="cls-2" x="14.49" y="8.1" width="1.6" height="1.6"/>
    <rect class="cls-2" x="14.49" y="9.7" width="1.6" height="1.6"/>
    <rect class="cls-2" x="14.49" y="11.3" width="1.6" height="1.6"/>
    <rect class="cls-2" x="14.49" y="12.9" width="1.6" height="1.6"/>
    <rect class="cls-2" x="14.49" y="14.5" width="1.6" height="1.6"/>
    <rect class="cls-2" x="14.49" y="3.3" width="1.6" height="1.6"/>
    <rect class="cls-2" x="14.49" y="1.7" width="1.6" height="1.6"/>
    <rect class="cls-2" x="12.89" y=".1" width="1.6" height="1.6"/>
  </g>
</svg>