<?xml version="1.0" encoding="UTF-8"?>
<svg id="Capa_1" xmlns="http://www.w3.org/2000/svg" viewBox="0 0 32 32">
  <defs>
    <style>
      .cls-1 {
        fill: #8aff7d;
      }

      .cls-2 {
        fill: #232323;
      }
    </style>
  </defs>
  <g>
    <polygon class="cls-2" points="27.99 20.76 27.99 22.36 21.61 22.36 20.01 22.36 20.01 20.76 26.4 20.76 27.99 20.76"/>
    <rect class="cls-2" x="26.4" y="19.16" width="1.6" height="1.6"/>
    <polygon class="cls-2" points="26.4 19.16 26.4 20.76 20.01 20.76 20.01 22.36 20.01 23.95 21.61 23.95 21.61 27.15 23.2 27.15 23.2 30.34 20.01 30.34 20.01 27.15 18.41 27.15 18.41 23.95 16.82 23.95 16.82 22.36 15.22 22.36 15.22 23.95 13.62 23.95 13.62 25.55 12.03 25.55 12.03 27.15 10.43 27.15 10.43 4.79 12.03 4.79 12.03 6.39 13.62 6.39 13.62 7.98 15.22 7.98 15.22 9.58 16.82 9.58 16.82 11.18 18.41 11.18 18.41 12.77 20.01 12.77 20.01 14.37 21.61 14.37 21.61 15.97 23.2 15.97 23.2 17.57 24.8 17.57 24.8 19.16 26.4 19.16"/>
    <rect class="cls-2" x="24.8" y="17.57" width="1.6" height="1.6"/>
    <rect class="cls-2" x="23.2" y="27.15" width="1.6" height="3.19"/>
    <rect class="cls-2" x="23.2" y="15.97" width="1.6" height="1.6"/>
    <rect class="cls-2" x="20.01" y="30.34" width="3.19" height="1.6"/>
    <rect class="cls-2" x="21.61" y="23.95" width="1.6" height="3.19"/>
    <rect class="cls-2" x="21.61" y="14.37" width="1.6" height="1.6"/>
    <rect class="cls-2" x="20.01" y="22.36" width="1.6" height="1.6"/>
    <rect class="cls-2" x="20.01" y="12.77" width="1.6" height="1.6"/>
    <rect class="cls-2" x="18.41" y="27.15" width="1.6" height="3.19"/>
    <rect class="cls-2" x="18.41" y="11.18" width="1.6" height="1.6"/>
    <rect class="cls-2" x="16.82" y="23.95" width="1.6" height="3.19"/>
    <rect class="cls-2" x="16.82" y="9.58" width="1.6" height="1.6"/>
    <rect class="cls-2" x="15.22" y="22.36" width="1.6" height="1.6"/>
    <rect class="cls-2" x="15.22" y="7.98" width="1.6" height="1.6"/>
    <rect class="cls-2" x="13.62" y="23.95" width="1.6" height="1.6"/>
    <rect class="cls-2" x="13.62" y="6.39" width="1.6" height="1.6"/>
    <rect class="cls-2" x="12.03" y="25.55" width="1.6" height="1.6"/>
    <rect class="cls-2" x="12.03" y="4.79" width="1.6" height="1.6"/>
    <rect class="cls-2" x="10.43" y="27.15" width="1.6" height="1.6"/>
    <rect class="cls-2" x="10.43" y="3.19" width="1.6" height="1.6"/>
    <polygon class="cls-2" points="10.43 27.15 10.43 28.74 8.83 28.74 8.83 3.19 10.43 3.19 10.43 4.79 10.43 27.15"/>
  </g>
  <g>
    <polygon class="cls-2" points="25.72 17.57 25.72 19.16 19.33 19.16 17.73 19.16 17.73 17.57 24.12 17.57 25.72 17.57"/>
    <rect class="cls-2" x="24.12" y="15.97" width="1.6" height="1.6"/>
    <polygon class="cls-1" points="24.12 15.97 24.12 17.57 17.73 17.57 17.73 19.16 17.73 20.76 19.33 20.76 19.33 23.95 20.93 23.95 20.93 27.15 17.73 27.15 17.73 23.95 16.14 23.95 16.14 20.76 14.54 20.76 14.54 19.16 12.94 19.16 12.94 20.76 11.35 20.76 11.35 22.36 9.75 22.36 9.75 23.95 8.15 23.95 8.15 1.6 9.75 1.6 9.75 3.19 11.35 3.19 11.35 4.79 12.94 4.79 12.94 6.39 14.54 6.39 14.54 7.98 16.14 7.98 16.14 9.58 17.73 9.58 17.73 11.18 19.33 11.18 19.33 12.77 20.93 12.77 20.93 14.37 22.53 14.37 22.53 15.97 24.12 15.97"/>
    <rect class="cls-2" x="22.53" y="14.37" width="1.6" height="1.6"/>
    <rect class="cls-2" x="20.93" y="23.95" width="1.6" height="3.19"/>
    <rect class="cls-2" x="20.93" y="12.77" width="1.6" height="1.6"/>
    <rect class="cls-2" x="17.73" y="27.15" width="3.19" height="1.6"/>
    <rect class="cls-2" x="19.33" y="20.76" width="1.6" height="3.19"/>
    <rect class="cls-2" x="19.33" y="11.18" width="1.6" height="1.6"/>
    <rect class="cls-2" x="17.73" y="19.16" width="1.6" height="1.6"/>
    <rect class="cls-2" x="17.73" y="9.58" width="1.6" height="1.6"/>
    <rect class="cls-2" x="16.14" y="23.95" width="1.6" height="3.19"/>
    <rect class="cls-2" x="16.14" y="7.98" width="1.6" height="1.6"/>
    <rect class="cls-2" x="14.54" y="20.76" width="1.6" height="3.19"/>
    <rect class="cls-2" x="14.54" y="6.39" width="1.6" height="1.6"/>
    <rect class="cls-2" x="12.94" y="19.16" width="1.6" height="1.6"/>
    <rect class="cls-2" x="12.94" y="4.79" width="1.6" height="1.6"/>
    <rect class="cls-2" x="11.35" y="20.76" width="1.6" height="1.6"/>
    <rect class="cls-2" x="11.35" y="3.19" width="1.6" height="1.6"/>
    <rect class="cls-2" x="9.75" y="22.36" width="1.6" height="1.6"/>
    <rect class="cls-2" x="9.75" y="1.6" width="1.6" height="1.6"/>
    <rect class="cls-2" x="8.15" y="23.95" width="1.6" height="1.6"/>
    <rect class="cls-2" x="8.15" y="0" width="1.6" height="1.6"/>
    <polygon class="cls-2" points="8.15 23.95 8.15 25.55 6.56 25.55 6.56 0 8.15 0 8.15 1.6 8.15 23.95"/>
  </g>
</svg>