<?xml version="1.0" encoding="UTF-8"?>
<svg id="Capa_1" xmlns="http://www.w3.org/2000/svg" viewBox="0 0 180.31 180.31">
  <defs>
    <style>
      .cls-1 {
        fill: #ffdb45;
      }

      .cls-2 {
        fill: #8aff7d;
      }

      .cls-3 {
        fill: #fff3e1;
      }

      .cls-4 {
        fill: #232323;
      }

      .cls-5 {
        fill: #ff3395;
      }
    </style>
  </defs>
  <rect class="cls-4" x="160.35" y="86.41" width="7.5" height="45.12"/>
  <rect class="cls-4" x="152.85" y="131.52" width="7.5" height="7.55"/>
  <polygon class="cls-3" points="160.35 86.41 160.35 131.52 152.85 131.52 152.85 139.07 137.79 139.07 137.79 131.52 145.29 131.52 145.29 124.02 152.85 124.02 152.85 93.91 145.29 93.91 145.29 86.41 137.79 86.41 137.79 78.9 152.85 78.9 152.85 86.41 160.35 86.41"/>
  <rect class="cls-4" x="152.85" y="78.9" width="7.5" height="7.5"/>
  <polygon class="cls-4" points="152.85 139.07 152.85 146.57 130.29 146.57 130.29 63.85 137.79 63.85 137.79 71.35 152.85 71.35 152.85 78.9 137.79 78.9 137.79 86.41 145.29 86.41 145.29 93.91 137.79 93.91 137.79 124.02 145.29 124.02 145.29 131.52 137.79 131.52 137.79 139.07 152.85 139.07"/>
  <rect class="cls-4" x="145.29" y="93.91" width="7.55" height="30.11"/>
  <rect class="cls-4" x="115.24" y="146.57" width="15.05" height="7.5"/>
  <path class="cls-3" d="M130.29,63.85v82.73h-15.05v7.5h-15.06v7.55h-37.61v-7.55h-15.05v-7.5h-15.01V63.85h7.5v7.5h15.05v7.55h52.62v-7.55h15.05v-7.5h7.55ZM100.18,124.02v-7.55h-7.5v7.55h-22.56v-7.55h-7.55v7.55h7.55v7.5h22.56v-7.5h7.5ZM100.18,108.96v-7.5h-7.5v7.5h7.5ZM70.12,108.96v-7.5h-7.55v7.5h7.55Z"/>
  <path class="cls-4" d="M130.29,56.3v7.55h-7.55v7.5h-15.05v7.55h-52.62v-7.55h15.06v-22.56h15v-15.05h7.55v7.55h22.56v-7.55h7.5v22.56h7.55ZM115.24,63.85v-15.05h-7.55v15.05h7.55ZM100.18,71.35v-22.56h-7.5v22.56h7.5Z"/>
  <rect class="cls-4" x="100.18" y="154.08" width="15.06" height="7.55"/>
  <rect class="cls-1" x="107.68" y="48.79" width="7.55" height="15.05"/>
  <rect class="cls-5" x="92.68" y="33.74" width="22.56" height="7.55"/>
  <polygon class="cls-4" points="115.24 26.24 115.24 33.74 92.68 33.74 92.68 26.24 100.18 26.24 100.18 18.68 107.68 18.68 107.68 26.24 115.24 26.24"/>
  <rect class="cls-4" x="62.57" y="161.63" width="37.61" height="7.5"/>
  <rect class="cls-4" x="92.68" y="116.47" width="7.5" height="7.55"/>
  <rect class="cls-4" x="92.68" y="101.46" width="7.5" height="7.5"/>
  <rect class="cls-1" x="92.68" y="48.79" width="7.5" height="22.56"/>
  <rect class="cls-4" x="70.12" y="124.02" width="22.56" height="7.5"/>
  <rect class="cls-4" x="62.57" y="116.47" width="7.55" height="7.55"/>
  <rect class="cls-4" x="62.57" y="101.46" width="7.55" height="7.5"/>
  <polygon class="cls-2" points="70.12 48.79 70.12 71.35 55.06 71.35 55.06 63.85 62.57 63.85 62.57 56.3 47.51 56.3 47.51 63.85 40.01 63.85 40.01 48.79 47.51 48.79 47.51 41.29 32.51 41.29 32.51 26.24 40.01 26.24 40.01 18.68 55.06 18.68 55.06 33.74 62.57 33.74 62.57 48.79 70.12 48.79"/>
  <rect class="cls-4" x="62.57" y="33.74" width="7.55" height="15.05"/>
  <rect class="cls-4" x="47.51" y="154.08" width="15.05" height="7.55"/>
  <polygon class="cls-4" points="62.57 56.3 62.57 63.85 55.06 63.85 55.06 71.35 40.01 71.35 40.01 63.85 47.51 63.85 47.51 56.3 62.57 56.3"/>
  <rect class="cls-4" x="55.06" y="18.68" width="7.5" height="15.06"/>
  <rect class="cls-4" x="40.01" y="11.18" width="15.05" height="7.5"/>
  <rect class="cls-4" x="32.51" y="146.57" width="15.01" height="7.5"/>
  <polygon class="cls-4" points="47.51 41.29 47.51 48.79 40.01 48.79 40.01 63.85 32.51 63.85 32.51 146.57 24.96 146.57 24.96 56.3 32.51 56.3 32.51 41.29 47.51 41.29"/>
  <rect class="cls-4" x="32.51" y="18.68" width="7.5" height="7.55"/>
  <rect class="cls-4" x="24.96" y="26.24" width="7.55" height="15.05"/>
</svg>