<?xml version="1.0" encoding="UTF-8"?>
<svg id="Capa_1" xmlns="http://www.w3.org/2000/svg" viewBox="0 0 180.31 180.31">
  <defs>
    <style>
      .cls-1 {
        fill: #232323;
      }

      .cls-2 {
        fill: #ff3395;
      }
    </style>
  </defs>
  <rect class="cls-1" x="161.5" y="55.08" width="7.55" height="67.64"/>
  <rect class="cls-1" x="154" y="122.72" width="7.49" height="7.49"/>
  <rect class="cls-1" x="154" y="47.58" width="7.49" height="7.49"/>
  <rect class="cls-1" x="146.46" y="130.21" width="7.54" height="7.49"/>
  <path class="cls-2" d="M154,55.08v67.64h-7.54v7.49H33.81v-7.49h-7.55V55.08h7.55v-7.49h112.65v7.49h7.54ZM108.94,92.65v-7.49h-7.55v-7.55h-7.49v-7.49h-15.04v-7.49h-7.49v52.56h7.49v-7.49h15.04v-7.49h7.49v-7.54h7.55Z"/>
  <rect class="cls-1" x="146.46" y="40.04" width="7.54" height="7.54"/>
  <polygon class="cls-1" points="146.46 137.7 146.46 145.25 33.8 145.25 33.8 137.7 33.81 137.7 146.46 137.7"/>
  <polygon class="cls-1" points="146.46 32.55 146.46 40.04 33.81 40.04 33.8 40.04 33.8 32.55 146.46 32.55"/>
  <polygon class="cls-1" points="33.81 130.21 33.81 137.7 33.8 137.7 26.26 137.7 26.26 130.21 33.81 130.21"/>
  <polygon class="cls-1" points="33.81 40.04 33.81 47.58 26.26 47.58 26.26 40.04 33.8 40.04 33.81 40.04"/>
  <rect class="cls-1" x="18.77" y="122.72" width="7.49" height="7.49"/>
  <rect class="cls-1" x="18.77" y="47.58" width="7.49" height="7.49"/>
  <rect class="cls-1" x="11.27" y="55.08" width="7.49" height="67.64"/>
</svg>