<?xml version="1.0" encoding="utf-8"?>
<!-- Generator: Adobe Illustrator 20.1.0, SVG Export Plug-In . SVG Version: 6.00 Build 0)  -->
<svg version="1.1" id="Capa_1" xmlns="http://www.w3.org/2000/svg" xmlns:xlink="http://www.w3.org/1999/xlink" x="0px" y="0px"
	 viewBox="0 0 1486 249.8" style="enable-background:new 0 0 1486 249.8;" xml:space="preserve">
<style type="text/css">
	.st0{fill:#1C1D1B;}
</style>
<g>
	<path class="st0" d="M7.2,7.2h62.4v10.6H19.2v26.5h45.5v10H19.2v29.6h51.6v11H7.2V7.2z"/>
	<path class="st0" d="M80.1,75.7h11.1c1.3,9.2,8.4,12.3,17.5,12.3c10,0,14.3-4.4,14.3-10c0-7-5.3-8.7-16.5-11
		C94,64.3,82.8,61.7,82.8,47.8c0-10.8,8.5-17.7,23.2-17.7c15.9,0,23.8,7.4,25.2,18.4h-11c-0.9-6.5-5.4-10.1-14.5-10.1
		c-8.6,0-12.3,4-12.3,8.8c0,6.6,6.1,7.9,16.9,10c12.6,2.5,23.5,5.3,23.5,20c0,12.9-10.6,19.5-25.5,19.5C91,96.8,81.1,88.5,80.1,75.7
		z"/>
	<path class="st0" d="M142.3,63.3c0-18.4,11.9-33.2,30.9-33.2c15.2,0,25.1,8.6,27.4,22.2h-11c-1.5-8.3-7.2-13.3-16.4-13.3
		c-13,0-19.7,10.7-19.7,24.4s6.7,24.4,19.7,24.4c9.9,0,15.8-5.8,16.6-15.2h10.8c-1.4,15.1-11.4,24.2-27.5,24.2
		C154.2,96.6,142.3,81.8,142.3,63.3z"/>
	<path class="st0" d="M208.3,63.3c0-18.4,11.9-33.2,31-33.2s30.8,14.9,30.8,33.2c0,18.5-11.7,33.4-30.8,33.4S208.3,81.8,208.3,63.3z
		 M258.9,63.3c0-13.7-6.7-24.5-19.7-24.5c-13,0-19.7,10.8-19.7,24.5s6.7,24.4,19.7,24.4C252.1,87.7,258.9,76.9,258.9,63.3z"/>
	<path class="st0" d="M282.1,7.2h11v87.7h-11V7.2z"/>
	<path class="st0" d="M305.9,78.1c0-14.7,10.8-17.9,27.2-19.9c9.3-1.1,15.3-2.6,15.3-9.1c0-6.8-4.8-11.1-13.6-11.1
		c-10,0-14.9,4.7-15.2,12.3h-10.6c0.5-10.7,8.6-20.3,25.7-20.3c6,0,11.3,1.1,15.3,3.4c5.3,3.2,8.5,8.7,8.5,17.2v29.6
		c0,5.1,1.2,7.8,6.7,6.6h0.5v7.7c-1.5,0.5-3.3,0.9-5.9,0.9c-6.7,0-10-3.2-11.2-9.9h-0.1c-4,5.5-10.5,10.6-21.2,10.6
		C315.3,96.2,305.9,90.3,305.9,78.1z M348.6,71.5V61.2c-3.2,2-8.7,3.5-13.9,4.5c-10.4,1.8-17.2,3.7-17.2,12.4
		c0,8.1,6.2,10.1,12.6,10.1C342.7,88.2,348.6,78.8,348.6,71.5z"/>
	<path class="st0" d="M402.7,63.4c0-20.9,12-33.4,27.7-33.4c9,0,16,4.5,20,11.2h0.2c-0.2-2.8-0.4-7.4-0.4-11.7V7.2h11v87.7h-10.8
		v-9.1h-0.2c-4,6.8-10.7,11-19.6,11C413.6,96.8,402.7,83.8,402.7,63.4z M450.9,63.5c0-14.3-6.7-24.3-19.5-24.3
		c-11.7,0-17.6,10.4-17.6,24.3s5.9,24.2,17.6,24.2C445,87.7,450.9,77.4,450.9,63.5z"/>
	<path class="st0" d="M486.8,20.6c0,10.4-5.7,15.1-12,15.8v-5.8c2.9-0.9,5.5-3.4,5.5-9.6v-1.4H475V7.2h11.8V20.6z"/>
	<path class="st0" d="M527.1,7.2h13.4l32.3,87.7h-13.2l-8.7-25.6h-34.5l-9,25.6H495L527.1,7.2z M519.7,59.9h28.1l-8.4-24.5
		c-2.9-8.5-5.3-18.6-5.3-18.6h-0.4c0,0-2.6,10.5-5.4,18.6L519.7,59.9z"/>
	<path class="st0" d="M593.5,43h0.4c3.9-7.3,10.4-12.3,18.7-12.3c1.8,0,2.8,0.2,4,0.7v10.4h-0.4c-1.5-0.5-2.6-0.6-4.5-0.6
		c-9.8,0-18.2,7.3-18.2,19.2v34.4h-11V31.6h10.8V43z"/>
	<path class="st0" d="M623.4,31.6h9.9V11.6h10.8v19.9h13.1V40h-13.1v40c0,4.6,2.5,5.9,6.5,5.9c1.9,0,4.4-0.5,5.5-0.8h0.4v9.2
		c-2.9,0.7-6,1.1-8.8,1.1c-8.5-0.1-14.4-3.5-14.4-12.9V40h-9.9V31.6z"/>
	<path class="st0" d="M699.8,7.2h11.4v12.7h-11.4V7.2z M700,31.6h11v63.3h-11V31.6z"/>
	<path class="st0" d="M759,7.2h32.4c26.2,0,39.1,17.9,39.1,44.2c0,26.2-13.7,43.5-40,43.5H759V7.2z M790.1,84.4
		c19.8,0,27.9-12.9,27.9-33c0-20.2-7.3-33.7-27.2-33.7h-19.7v66.7H790.1z"/>
	<path class="st0" d="M843.5,7.2H855v12.7h-11.4V7.2z M843.8,31.6h11v63.3h-11V31.6z"/>
	<path class="st0" d="M865.8,75.7h11.1c1.3,9.2,8.4,12.3,17.4,12.3c10,0,14.3-4.4,14.3-10c0-7-5.3-8.7-16.5-11
		c-12.4-2.6-23.6-5.2-23.6-19.1c0-10.8,8.5-17.7,23.2-17.7c15.9,0,23.8,7.4,25.2,18.4h-11c-0.9-6.5-5.4-10.1-14.5-10.1
		c-8.6,0-12.3,4-12.3,8.8c0,6.6,6.1,7.9,16.9,10c12.6,2.5,23.5,5.3,23.5,20c0,12.9-10.6,19.5-25.5,19.5
		C876.7,96.8,866.8,88.5,865.8,75.7z"/>
	<path class="st0" d="M927.4,75.7h11.1c1.3,9.2,8.4,12.3,17.4,12.3c10,0,14.3-4.4,14.3-10c0-7-5.3-8.7-16.5-11
		c-12.4-2.6-23.6-5.2-23.6-19.1c0-10.8,8.5-17.7,23.2-17.7c15.9,0,23.8,7.4,25.2,18.4h-11c-0.9-6.5-5.4-10.1-14.5-10.1
		c-8.6,0-12.3,4-12.3,8.8c0,6.6,6.1,7.9,16.9,10c12.6,2.5,23.5,5.3,23.5,20c0,12.9-10.6,19.5-25.5,19.5
		C938.2,96.8,928.3,88.5,927.4,75.7z"/>
	<path class="st0" d="M989.5,63.3c0-18.4,12.1-33.2,30.3-33.2c9.4,0,16.7,3.7,21.7,9.8c5.2,6.3,7.8,15.3,7.8,26.1h-48.6
		c0.8,12.4,7.5,21.8,19.8,21.8c8.7,0,14.7-4.1,16.7-10.8h10.7c-2.8,11.8-13,19.8-27.6,19.8C1000.9,96.6,989.5,81.8,989.5,63.3z
		 M1000.9,58h36.7c-0.6-12.1-6.8-19.5-17.8-19.5C1008.4,38.5,1002.3,46.8,1000.9,58z"/>
	<path class="st0" d="M1071.8,40.5h0.4c4.6-6.4,10.8-10.5,20-10.5c13.2,0,21.3,7.4,21.3,20.6v44.2h-10.8V52
		c0-8.1-5.3-12.7-13.9-12.7c-9.8,0-16.9,7-16.9,17.1v38.6h-11V31.6h10.8V40.5z"/>
	<path class="st0" d="M1126.7,115.6v-9.4h0.5c1.2,0.7,3.9,1.2,6.6,1.2c4.4,0,7.2-1.7,9.4-7.7c0-0.2,2.5-7.3,2.2-8l-24.2-60.1h11.9
		l13.1,35.1c2.6,7.2,5.3,17.1,5.3,17.1h0.2c0,0,2.9-10,5.4-17.1l12.6-35.1h11.4l-26.9,69.1c-5.2,13.3-10.3,16.3-18.4,16.3
		C1132.5,116.9,1128.5,116.3,1126.7,115.6z"/>
	<path class="st0" d="M1217.4,63.4c0-20.9,12-33.4,27.7-33.4c9,0,16,4.5,20,11.2h0.2c-0.2-2.8-0.4-7.4-0.4-11.7V7.2h11v87.7h-10.8
		v-9.1h-0.2c-4,6.8-10.7,11-19.6,11C1228.2,96.8,1217.4,83.8,1217.4,63.4z M1265.6,63.5c0-14.3-6.7-24.3-19.5-24.3
		c-11.7,0-17.6,10.4-17.6,24.3s5.9,24.2,17.6,24.2C1259.7,87.7,1265.6,77.4,1265.6,63.5z"/>
	<path class="st0" d="M1287.7,63.3c0-18.4,12.1-33.2,30.3-33.2c9.4,0,16.7,3.7,21.7,9.8c5.2,6.3,7.8,15.3,7.8,26.1h-48.6
		c0.8,12.4,7.5,21.8,19.8,21.8c8.7,0,14.7-4.1,16.7-10.8h10.7c-2.8,11.8-13,19.8-27.6,19.8C1299.1,96.6,1287.7,81.8,1287.7,63.3z
		 M1299.1,58h36.7c-0.6-12.1-6.8-19.5-17.8-19.5C1306.5,38.5,1300.5,46.8,1299.1,58z"/>
	<path class="st0" d="M1390.8,7.2h11v87.7h-11V7.2z"/>
	<path class="st0" d="M1414.6,78.1c0-14.7,10.8-17.9,27.2-19.9c9.3-1.1,15.3-2.6,15.3-9.1c0-6.8-4.8-11.1-13.6-11.1
		c-10,0-14.9,4.7-15.2,12.3h-10.6c0.5-10.7,8.6-20.3,25.7-20.3c6,0,11.3,1.1,15.3,3.4c5.3,3.2,8.5,8.7,8.5,17.2v29.6
		c0,5.1,1.2,7.8,6.7,6.6h0.5v7.7c-1.5,0.5-3.3,0.9-5.9,0.9c-6.7,0-10-3.2-11.2-9.9h-0.1c-4,5.5-10.5,10.6-21.2,10.6
		C1424.1,96.2,1414.6,90.3,1414.6,78.1z M1457.3,71.5V61.2c-3.2,2-8.7,3.5-13.9,4.5c-10.4,1.8-17.2,3.7-17.2,12.4
		c0,8.1,6.2,10.1,12.6,10.1C1451.4,88.2,1457.3,78.8,1457.3,71.5z"/>
	<path class="st0" d="M7.2,135.4h32.4c26.2,0,39.1,17.9,39.1,44.2c0,26.2-13.7,43.5-40,43.5H7.2V135.4z M38.3,212.6
		c19.8,0,27.9-12.9,27.9-33c0-20.2-7.3-33.7-27.2-33.7H19.3v66.7H38.3z"/>
	<path class="st0" d="M91.7,135.4h11.4v12.7H91.7V135.4z M91.9,159.8h11v63.3h-11V159.8z"/>
	<path class="st0" d="M118,159.8h10.8v9.9h0.4c4.7-7.2,11.1-11.4,20.2-11.4c16.2,0,27.2,12.5,27.2,33.4c0,20.3-10.5,33.4-27.6,33.4
		c-8.6,0-15.6-3.5-19.9-10.3h-0.4c0.1,2.2,0.2,5.8,0.2,10.6v19.2h-11V159.8z M165.4,191.8c0-13.9-5.8-24.3-17.4-24.3
		c-13.4,0-19.6,10.8-19.6,24.3c0,13.3,5.4,24.1,19.5,24.1C159.5,215.9,165.4,205.6,165.4,191.8z"/>
	<path class="st0" d="M228.7,223.1v-8.8h-0.2c-4.5,6.2-10,10.3-19.1,10.3c-13.1,0-21.5-7.9-21.5-21.1v-43.6h11v43
		c0,8,5.1,12.7,13.8,12.7c9.7,0,15.9-7.4,15.9-17.2v-38.6h11v63.3H228.7z"/>
	<path class="st0" d="M250.9,159.8h9.9v-19.9h10.8v19.9h13.1v8.5h-13.1v40c0,4.6,2.5,5.9,6.5,5.9c1.9,0,4.4-0.5,5.5-0.8h0.4v9.2
		c-2.9,0.7-6,1.1-8.8,1.1c-8.5-0.1-14.4-3.5-14.4-12.9v-42.4h-9.9V159.8z"/>
	<path class="st0" d="M293.5,206.3c0-14.7,10.8-17.9,27.2-19.9c9.3-1.1,15.3-2.6,15.3-9.1c0-6.8-4.8-11.1-13.6-11.1
		c-10,0-14.9,4.7-15.2,12.3h-10.6c0.5-10.7,8.6-20.3,25.7-20.3c6,0,11.3,1.1,15.3,3.4c5.3,3.2,8.5,8.7,8.5,17.2v29.6
		c0,5.1,1.2,7.8,6.7,6.6h0.5v7.7c-1.5,0.5-3.3,0.9-5.9,0.9c-6.7,0-10-3.2-11.2-9.9h-0.1c-4,5.5-10.5,10.6-21.2,10.6
		C303,224.4,293.5,218.5,293.5,206.3z M336.2,199.7v-10.4c-3.2,2-8.7,3.5-13.9,4.5c-10.4,1.8-17.2,3.7-17.2,12.4
		c0,8.1,6.2,10.1,12.6,10.1C330.3,216.4,336.2,207,336.2,199.7z"/>
	<path class="st0" d="M359,191.5c0-18.4,11.9-33.2,30.9-33.2c15.2,0,25.1,8.6,27.4,22.2h-11c-1.5-8.3-7.2-13.3-16.4-13.3
		c-13,0-19.7,10.7-19.7,24.4s6.7,24.4,19.7,24.4c9.9,0,15.8-5.8,16.6-15.2h10.8c-1.4,15.1-11.4,24.2-27.5,24.2
		C370.9,224.8,359,210,359,191.5z"/>
	<path class="st0" d="M428.2,135.4h11.4v12.7h-11.4V135.4z M428.4,159.8h11v63.3h-11V159.8z"/>
	<path class="st0" d="M451,191.5c0-18.4,11.9-33.2,31-33.2s30.8,14.9,30.8,33.2c0,18.5-11.7,33.4-30.8,33.4S451,210,451,191.5z
		 M501.6,191.5c0-13.7-6.7-24.5-19.7-24.5c-13,0-19.7,10.8-19.7,24.5s6.7,24.4,19.7,24.4C494.9,215.9,501.6,205.2,501.6,191.5z
		 M483.1,132.3h13.4l-10.5,17.1h-9.2L483.1,132.3z"/>
	<path class="st0" d="M553.3,206.3c0-14.7,10.8-17.9,27.2-19.9c9.3-1.1,15.3-2.6,15.3-9.1c0-6.8-4.8-11.1-13.6-11.1
		c-10,0-14.9,4.7-15.2,12.3h-10.6c0.5-10.7,8.6-20.3,25.7-20.3c6,0,11.3,1.1,15.3,3.4c5.3,3.2,8.5,8.7,8.5,17.2v29.6
		c0,5.1,1.2,7.8,6.7,6.6h0.5v7.7c-1.5,0.5-3.3,0.9-5.9,0.9c-6.7,0-10-3.2-11.2-9.9h-0.1c-4,5.5-10.5,10.6-21.2,10.6
		C562.7,224.4,553.3,218.5,553.3,206.3z M595.9,199.7v-10.4c-3.2,2-8.7,3.5-13.9,4.5c-10.4,1.8-17.2,3.7-17.2,12.4
		c0,8.1,6.2,10.1,12.6,10.1C590.1,216.4,595.9,207,595.9,199.7z"/>
	<path class="st0" d="M649.6,135.4h69.8V146h-28.9v77.1h-12.1V146h-28.8V135.4z"/>
	<path class="st0" d="M728,206.3c0-14.7,10.8-17.9,27.2-19.9c9.3-1.1,15.3-2.6,15.3-9.1c0-6.8-4.8-11.1-13.6-11.1
		c-10,0-14.9,4.7-15.2,12.3h-10.6c0.5-10.7,8.6-20.3,25.7-20.3c6,0,11.3,1.1,15.3,3.4c5.3,3.2,8.5,8.7,8.5,17.2v29.6
		c0,5.1,1.2,7.8,6.7,6.6h0.5v7.7c-1.5,0.5-3.3,0.9-5.9,0.9c-6.7,0-10-3.2-11.2-9.9h-0.1c-4,5.5-10.5,10.6-21.2,10.6
		C737.4,224.4,728,218.5,728,206.3z M770.7,199.7v-10.4c-3.2,2-8.7,3.5-13.9,4.5c-10.4,1.8-17.2,3.7-17.2,12.4
		c0,8.1,6.2,10.1,12.6,10.1C764.8,216.4,770.7,207,770.7,199.7z"/>
	<path class="st0" d="M807.7,171.2h0.4c3.9-7.3,10.4-12.3,18.7-12.3c1.8,0,2.8,0.2,4,0.7V170h-0.4c-1.5-0.5-2.6-0.6-4.5-0.6
		c-9.8,0-18.2,7.3-18.2,19.2v34.4h-11v-63.3h10.8V171.2z"/>
	<path class="st0" d="M852.4,171.2h0.4c3.9-7.3,10.4-12.3,18.7-12.3c1.8,0,2.8,0.2,4,0.7V170h-0.4c-1.5-0.5-2.6-0.6-4.5-0.6
		c-9.8,0-18.2,7.3-18.2,19.2v34.4h-11v-63.3h10.8V171.2z"/>
	<path class="st0" d="M883.6,206.3c0-14.7,10.8-17.9,27.2-19.9c9.3-1.1,15.3-2.6,15.3-9.1c0-6.8-4.8-11.1-13.6-11.1
		c-10,0-14.9,4.7-15.2,12.3h-10.6c0.5-10.7,8.6-20.3,25.7-20.3c6,0,11.3,1.1,15.3,3.4c5.3,3.2,8.5,8.7,8.5,17.2v29.6
		c0,5.1,1.2,7.8,6.7,6.6h0.5v7.7c-1.5,0.5-3.3,0.9-5.9,0.9c-6.7,0-10-3.2-11.2-9.9h-0.1c-4,5.5-10.5,10.6-21.2,10.6
		C893.1,224.4,883.6,218.5,883.6,206.3z M926.3,199.7v-10.4c-3.2,2-8.7,3.5-13.9,4.5c-10.4,1.8-17.2,3.7-17.2,12.4
		c0,8.1,6.2,10.1,12.6,10.1C920.4,216.4,926.3,207,926.3,199.7z"/>
	<path class="st0" d="M952,227.4h10.3c0.9,6.6,7.3,9.3,16.7,9.3c11.3,0,17.6-5.1,17.6-15.8v-1.8c0-3.7,0.1-7.1,0.2-9.1h-0.2
		c-4.4,6.3-9.9,10.1-18.9,10.1c-16.2,0-27.7-12.6-27.7-31c0-19.5,12.3-31,27.1-31c9.1,0,15.2,3.5,19.2,9.9h0.2v-8.4h10.8v60.7
		c0,8.4-2.8,14.6-7.7,18.7c-5,4.1-12,6-20.5,6C962.6,245.2,953.2,238.6,952,227.4z M997.3,188.8c0-13.3-6-21.5-18.6-21.5
		c-11.6,0-17.4,8.7-17.4,22c0,13.4,6.1,21.9,17.6,21.9C992.6,211.3,997.3,201.6,997.3,188.8z"/>
	<path class="st0" d="M1019.2,191.5c0-18.4,11.9-33.2,31-33.2s30.8,14.9,30.8,33.2c0,18.5-11.7,33.4-30.8,33.4
		S1019.2,210,1019.2,191.5z M1069.8,191.5c0-13.7-6.7-24.5-19.7-24.5c-13,0-19.7,10.8-19.7,24.5s6.7,24.4,19.7,24.4
		C1063.1,215.9,1069.8,205.2,1069.8,191.5z"/>
	<path class="st0" d="M1103.5,168.7h0.4c4.6-6.4,10.8-10.5,20-10.5c13.2,0,21.3,7.4,21.3,20.6v44.2h-10.8v-42.9
		c0-8.1-5.3-12.7-13.9-12.7c-9.8,0-16.9,7-16.9,17.1v38.6h-11v-63.3h10.8V168.7z"/>
	<path class="st0" d="M1157.4,206.3c0-14.7,10.8-17.9,27.2-19.9c9.3-1.1,15.3-2.6,15.3-9.1c0-6.8-4.8-11.1-13.6-11.1
		c-10,0-14.9,4.7-15.2,12.3h-10.6c0.5-10.7,8.6-20.3,25.7-20.3c6,0,11.3,1.1,15.3,3.4c5.3,3.2,8.5,8.7,8.5,17.2v29.6
		c0,5.1,1.2,7.8,6.7,6.6h0.5v7.7c-1.5,0.5-3.3,0.9-5.9,0.9c-6.7,0-10-3.2-11.2-9.9h-0.1c-4,5.5-10.5,10.6-21.2,10.6
		C1166.8,224.4,1157.4,218.5,1157.4,206.3z M1200.1,199.7v-10.4c-3.2,2-8.7,3.5-13.9,4.5c-10.4,1.8-17.2,3.7-17.2,12.4
		c0,8.1,6.2,10.1,12.6,10.1C1194.2,216.4,1200.1,207,1200.1,199.7z"/>
</g>
</svg>
