<?xml version="1.0" encoding="UTF-8"?>
<svg id="Capa_1" xmlns="http://www.w3.org/2000/svg" viewBox="0 0 352.12 136.12">
  <defs>
    <style>
      .cls-1 {
        fill: #232323;
      }

      .cls-2 {
        fill: #ff3395;
      }
    </style>
  </defs>
  <g>
    <path class="cls-2" d="M30.75,12.92c-.5-.62-1.43-1.36-3.08-1.3-1.26.04-2.37.49-3.3,1.32-.93.83-1.51,1.88-1.73,3.14-.3,1.7.25,2.74.75,3.3.73.83,1.78,1.22,3.12,1.18,1.25-.04,2.34-.46,3.23-1.23.91-.77,1.48-1.81,1.7-3.09.23-1.34,0-2.46-.7-3.33Z"/>
    <path class="cls-2" d="M28.27,24.83c-.43.01-.85.15-1.25.39-.29.17-.57.38-.81.6-.99.81-2.15,1.52-3.42,2.12-1.26.57-2.51.99-3.74,1.26-.48.12-.92.26-1.31.43-1,.43-1.27,1.14-1.33,1.53-.1.56.03,1.08.37,1.47.37.43.92.64,1.63.61,2.23-.08,3.1-.06,3.43-.03h.02c0,.17-.01.48-.1,1l-.27,1.56c-.4,2.32-.89,5.16-1.46,8.54-.57,3.38-1.21,6.96-1.9,10.65-.43,2.45-.84,3.53-1.11,4-.26.47-.54.76-.77.82-.3.08-1.11.22-3.16.29-1.07.04-1.88.73-2.06,1.75-.14.81.17,1.32.37,1.56.25.29.72.63,1.54.6,1.15-.04,2.72-.17,4.57-.37.73-.03,1.42-.08,1.96-.14l1.37-.05c.65.02,1.35.03,2.1,0,.86.06,2.29.1,4.42.13,1.11-.04,1.95-.76,2.14-1.83.14-.78-.17-1.28-.37-1.5-.24-.28-.7-.61-1.45-.59h0c-2.04.02-2.81-.08-3.06-.12,0,0-.09-.09-.17-.43-.08-.36-.15-1.34.3-3.9.6-3.72,1.36-8.16,2.26-13.3.71-4.05,1.3-7.12,1.74-9.12.44-1.97.85-3.66,1.22-5l.21-.78c.14-.81-.18-1.32-.38-1.56-.25-.29-.72-.63-1.54-.6ZM12.94,61.27v.2s0,0,0,0v-.2s0,0,0,0Z"/>
    <path class="cls-2" d="M77.02,57.84c-2.04.07-2.79-.01-3.01-.04,0,0-.08-.09-.14-.4-.07-.37-.12-1.37.33-3.92l2.64-15.09c.91-5.2.32-9.1-1.77-11.59-2.09-2.5-5.77-3.68-10.91-3.5-3.83.13-7.29,1.07-10.28,2.77-1.82,1.04-3.49,2.4-5.02,4.09.28-.93.59-1.85.92-2.76l.3-.93.05-.19c.14-.81-.18-1.32-.38-1.55-.25-.29-.72-.63-1.54-.6-.63.02-1.28.35-2.02,1.01-.98.83-2.11,1.54-3.42,2.11-.98.47-2.24.91-3.68,1.3-.66.14-1.13.29-1.51.48-.89.45-1.13,1.13-1.19,1.49-.12.69.19,1.34.77,1.69.36.23.79.34,1.24.32,2.24-.08,3.11-.06,3.43-.03h.02c0,.17-.01.48-.1,1l-3.64,20.75s0,0,0,0h0c-.43,2.44-.84,3.52-1.11,4-.19.33-.47.74-.79.82-.39.1-1.26.23-3.21.29-1.03.04-1.81.72-1.99,1.75-.14.78.12,1.29.37,1.57.24.28.7.61,1.48.59,1.2-.04,2.77-.17,4.57-.37.78-.03,1.47-.08,1.96-.14l1.43-.05c.63.03,1.3.02,1.9,0,2.46.05,4.88.06,7.21.03,1.11-.04,1.96-.76,2.14-1.83.14-.78-.17-1.28-.37-1.5-.24-.28-.7-.61-1.49-.59l-1.71.06c-2.1.02-3.09-.11-3.55-.21-.21-.05-.4-.13-.5-.57-.09-.37-.17-1.32.22-3.6l1.78-10.15c.84-4.78,2.7-8.62,5.54-11.41,2.84-2.79,6.21-4.21,10.3-4.35,2.49-.09,4.41.2,5.68.86,1.14.59,1.86,1.57,2.2,2.99.38,1.61.32,3.88-.18,6.75l-2.46,14.06c-.34,2.24-.74,3.27-1.02,3.73-.31.52-.68.83-1.18.97-.51.14-1.57.33-3.74.41l-1.6.06c-1.07.04-1.88.73-2.06,1.75-.14.81.17,1.32.37,1.55.25.29.72.63,1.55.6,2.59-.09,5.07-.25,7.29-.46.64-.02,1.28-.07,1.83-.14l1.22-.05c.61.02,1.28.03,1.99,0,1.87.07,3.4.09,4.55.05s1.95-.75,2.14-1.83c.14-.78-.17-1.28-.37-1.5-.24-.28-.7-.61-1.49-.59Z"/>
    <path class="cls-2" d="M102.89,26.83c.82.02,2.25,0,4.39-.08s2.5-1.48,2.57-1.91c.1-.6-.03-1.15-.39-1.56-.4-.46-1-.68-1.81-.66l-5.68.27c-2.15.13-3.12.16-3.55.16-.01,0-.03,0-.04,0,0-.02,0-.04.01-.07.1-.58.44-1.83,1.44-4.42.33-.82.63-1.6.92-2.39.17-.55.22-.95.17-1.33-.04-.26-.27-1.12-1.41-1.34l-.15-.02c-.53-.04-1.52.07-2.38,1.29-1.09,1.84-2.02,3.31-2.75,4.39-.66.98-1.51,1.89-2.53,2.71-.96.77-2.09,1.35-3.38,1.72-.17.04-.33.09-.45.15-.37.14-.69.29-.98.48-.49.34-.82.83-.92,1.39-.11.63.08,1.23.5,1.63.38.37.9.54,1.55.52l.84-.03c1.07-.04,1.66-.03,2.01,0,0,.19-.03.49-.11.95l-3.86,22-.36,2.12h.09c-.2,2.57.19,4.49,1.17,5.86,1.29,1.78,3.61,2.63,6.89,2.52,2.3-.08,4.28-.91,5.89-2.47,1.53-1.47,2.77-3.63,3.79-6.59.11-.24.18-.44.19-.53.2-.75.26-1.18.22-1.51-.07-.73-.65-1.45-1.79-1.41-.69.02-1.3.33-1.7.85-.27.35-.48.81-.65,1.45-.68,2.18-1.41,3.2-1.9,3.67-.63.61-1.54.93-2.78.97-1.84.06-2.11-.66-2.22-.97-.22-.59-.47-2.19.25-6.31l3.49-19.9c.15-.87.35-1.11.35-1.11h0s.19-.18.91-.29c.7-.11,2.1-.18,4.12-.21Z"/>
    <path class="cls-2" d="M143.01,42.44c-.75.03-1.39.4-1.77,1.03-.19.32-.39.8-.65,1.63-.67,2.62-2.14,4.69-4.5,6.33-2.4,1.67-5.33,2.57-8.71,2.69-4.07.14-7-.91-8.95-3.21-1.95-2.3-2.68-5.67-2.17-10.02.1-.8.19-1.18.24-1.35.02,0,.04-.01.06-.02.16-.05.69-.16,2.17-.21l23.9-.69c1.54-.05,2.56-.36,3.2-.96.66-.63.99-1.69,1.05-3.39.22-2.78-.33-5.26-1.64-7.38-1.3-2.09-3.2-3.71-5.63-4.82-2.38-1.08-5.17-1.58-8.29-1.47-3.7.13-7.19,1.12-10.38,2.95-3.18,1.83-5.86,4.35-7.95,7.5-2.08,3.14-3.43,6.67-4,10.48-.58,3.85-.31,7.24.79,10.06,1.13,2.89,3.05,5.1,5.71,6.57,2.6,1.43,5.85,2.09,9.66,1.96,4.82-.17,8.96-1.5,12.3-3.95,3.37-2.47,5.74-5.93,7.05-10.29l.14-.39c.18-.66.24-1.16.19-1.58-.11-.92-.84-1.52-1.81-1.48ZM130.74,24.17c3.12-.11,5.41.64,7,2.28,1.57,1.63,2.19,3.82,1.89,6.74-.05.78-.15,1.07-.14,1.1-.02.01-.09.04-.21.07-.31.07-1.03.17-2.68.28l-17.66.83c-.77.03-1.18-.03-1.37-.07.03-.23.1-.64.29-1.31.99-3.01,2.65-5.42,4.93-7.15,2.28-1.73,4.96-2.66,7.95-2.77Z"/>
    <path class="cls-2" d="M179.55,20.35c-.69-.64-1.62-.96-2.71-.92-3.03.11-5.95,1.04-8.7,2.78-1.74,1.11-3.38,2.5-4.9,4.17.29-.99.61-1.96.97-2.91l.3-.93.05-.19c.14-.81-.18-1.32-.38-1.56-.25-.29-.72-.63-1.54-.6-.63.02-1.28.35-2.02,1.01-.98.83-2.11,1.54-3.42,2.11-.98.47-2.24.91-3.68,1.3-.66.14-1.13.29-1.51.48-.89.45-1.13,1.13-1.19,1.49-.12.69.19,1.34.78,1.69.36.22.79.33,1.23.32,2.24-.08,3.1-.06,3.43-.03,0,0,.02,0,.03,0,0,.17-.01.48-.1.99l-3.36,19.21-.34,1.55c-.43,2.43-.85,3.51-1.13,3.98-.16.28-.49.76-.84.85-.39.1-1.26.23-3.21.29-1.03.04-1.81.72-1.99,1.75-.14.78.12,1.29.37,1.57.24.28.7.61,1.48.59,1.2-.04,2.77-.17,4.57-.37.78-.03,1.47-.08,1.96-.14l1.12-.04c.99.01,1.95.05,2.78-.03,3.26.03,6.71-.02,10.27-.15,2.02-.07,2.42-1.42,2.49-1.84.1-.55-.04-1.06-.37-1.44-.39-.45-.98-.66-1.77-.63l-2.23.08c-2.6.09-4.46.06-5.52-.1-.93-.14-1.21-.49-1.33-.75-.12-.25-.36-1.07.06-3.43l1.52-9.07c.87-4.97,2.38-8.75,4.47-11.22,2.02-2.39,4.54-3.6,7.69-3.71.49-.02,1.21.02,2.12.12.65.08,1.15.12,1.52.1.92-.03,1.8-.4,2.52-1.05.74-.66,1.2-1.48,1.37-2.46.26-1.47-.33-2.37-.86-2.87Z"/>
    <path class="cls-2" d="M62.18,84.52v-3.9l-3.98.14v-3.98l-3.98.14-3.9.14v-3.9l-3.91.14-4.05.14-3.83.13-3.9.14-4.05.14-3.83.13v3.9l-3.98.14-3.98.14v3.98l-3.9.14v7.88l-3.91.14v27.55l3.91-.14v7.88l3.9-.14v3.98l3.98-.14,3.98-.14v3.9l3.83-.13,4.05-.14,3.9-.14,3.83-.13,4.05-.14,3.91-.14,3.9-.14,3.98-.14,3.98-.14v-3.9l3.83-.13v-7.96l-3.83.13v-3.9l3.83-.13v-27.55l-3.83.13v-3.98ZM38.46,108.99h-.15s-3.68.13-3.68.13v-3.98l-3.91.14v-3.91l3.91-.14v-3.98l3.68-.13h.22s3.83-.14,3.83-.14v3.9l4.05-.14v4.05l-4.05.14v3.9l-3.9.14ZM58.2,92.54v19.74l-3.98.14v-23.64l-3.9.14-3.91.14v3.91l-4.05.14v-3.98l-3.83.13-3.9.14-4.05.14v3.98l-3.83.13v3.9l-3.98.14v11.86l3.98-.14v3.9l3.83-.13v3.98l4.05-.14,3.9-.14,3.83-.13v-3.98l4.05-.14v3.98l3.91-.14v3.98l3.9-.14h.07s3.91-.14,3.91-.14l3.98-.14v3.9l-3.98.14-3.98.14-3.9.14-3.91.14-4.05.14-3.83.13-3.9.14-3.91.14v-3.98l-3.98.14-3.98.14h-.07s0-3.9,0-3.9v-3.98l-3.9.14v-19.59l3.9-.14v-7.96h.07s3.98-.14,3.98-.14l3.98-.14v-3.98l3.91-.14,3.9-.14,3.83-.13,3.98-.14v3.98l3.9-.14,3.98-.14v3.98l3.98-.14v3.91Z"/>
    <polygon class="cls-2" points="116.51 73.69 110.88 73.89 110.88 68.37 82.87 69.35 82.87 74.87 77.25 75.06 77.25 80.69 71.63 80.88 71.63 108.9 77.25 108.7 77.25 114.32 82.87 114.13 82.87 119.75 110.88 118.77 110.88 113.15 116.51 112.95 116.51 107.33 122.13 107.13 122.13 95.99 110.88 96.38 110.88 102.01 105.26 102.2 105.26 107.82 88.5 108.41 88.5 102.79 82.87 102.98 82.87 86.01 88.5 85.81 88.5 80.19 105.26 79.6 105.26 85.23 110.88 85.03 110.88 90.66 122.13 90.26 122.13 79.12 116.51 79.32 116.51 73.69"/>
    <polygon class="cls-2" points="173 82.64 167.33 82.84 167.33 77.27 139.09 78.26 139.09 83.82 133.42 84.02 133.42 89.69 127.75 89.89 127.75 118.13 133.42 117.93 133.42 123.6 139.09 123.4 139.09 129.07 167.33 128.09 167.33 122.42 173 122.22 173 116.55 178.67 116.35 178.67 105.12 167.33 105.51 167.33 111.18 161.66 111.38 161.66 117.05 144.76 117.64 144.76 111.97 139.09 112.17 139.09 95.06 144.76 94.86 144.76 89.19 161.66 88.6 161.66 94.27 167.33 94.07 167.33 99.74 178.67 99.34 178.67 88.11 173 88.31 173 82.64"/>
    <polygon class="cls-2" points="184.05 65.82 195.29 65.42 195.29 53.63 184.05 54.03 184.05 65.82"/>
    <polygon class="cls-2" points="184.05 121.67 195.29 121.28 195.29 72.54 184.05 72.93 184.05 121.67"/>
    <path class="cls-2" d="M246.05,80.14l-5.56.19v-5.56l-28.35.99v5.56l-5.56.19v5.67l-5.67.2v28.24l5.67-.2v5.67l5.56-.19v5.67l28.35-.99v-5.67l5.56-.19v-5.67l5.67-.2v-28.24l-5.67.2v-5.67ZM240.38,108.58l-5.56.19v5.67l-17.01.59v-5.67l-5.56.19v-16.9l5.56-.19v-5.67l17.01-.59v5.67l5.56-.19v16.9Z"/>
    <polygon class="cls-2" points="292.77 72.97 287.7 73.15 287.7 68.18 272.59 68.7 272.59 73.68 267.53 73.85 267.53 68.88 257.39 69.24 257.39 119.11 267.53 118.75 267.53 83.99 272.59 83.81 272.59 78.74 282.63 78.39 282.63 83.46 287.7 83.28 287.7 118.05 297.84 117.7 297.84 77.86 292.77 78.04 292.77 72.97"/>
    <polygon class="cls-2" points="344.24 91.25 344.24 81.12 339.22 81.3 339.22 76.19 334.11 76.37 334.11 71.36 313.68 72.07 313.68 77.08 308.57 77.26 308.57 82.37 303.46 82.55 303.46 92.76 308.57 92.59 308.57 97.69 318.79 97.34 318.79 102.45 329.01 102.09 329.01 107.1 334.11 106.93 334.11 112.04 318.79 112.57 318.79 107.46 313.68 107.64 313.68 102.53 303.56 102.88 303.56 113.1 308.57 112.93 308.57 118.04 313.68 117.86 313.68 122.97 334.11 122.25 334.11 117.14 339.22 116.97 339.22 111.86 344.24 111.68 344.24 101.56 339.22 101.73 339.22 96.62 329.01 96.98 329.01 91.87 318.79 92.23 318.79 87.12 313.68 87.3 313.68 82.1 329.01 81.56 329.01 86.67 334.11 86.49 334.11 91.6 344.24 91.25"/>
  </g>
  <g>
    <path class="cls-1" d="M28.45,5.32c-.5-.62-1.43-1.36-3.08-1.3-1.26.04-2.37.49-3.3,1.32-.93.83-1.51,1.88-1.73,3.14-.3,1.7.25,2.74.75,3.3.73.83,1.78,1.22,3.12,1.18,1.25-.04,2.34-.46,3.23-1.23.91-.77,1.48-1.81,1.7-3.09.23-1.34,0-2.46-.7-3.33Z"/>
    <path class="cls-1" d="M25.96,17.23c-.43.01-.85.15-1.25.39-.29.17-.57.38-.81.6-.99.81-2.15,1.52-3.42,2.12-1.26.57-2.51.99-3.74,1.26-.48.12-.92.26-1.31.43-1,.43-1.27,1.14-1.33,1.53-.1.56.03,1.08.37,1.47.37.43.92.64,1.63.61,2.23-.08,3.1-.06,3.43-.03h.02c0,.17-.01.48-.1,1l-.27,1.56c-.4,2.32-.89,5.16-1.46,8.54-.57,3.38-1.21,6.96-1.9,10.65-.43,2.45-.84,3.53-1.11,4-.26.47-.54.76-.77.82-.3.08-1.11.22-3.16.29-1.07.04-1.88.73-2.06,1.75-.14.81.17,1.32.37,1.56.25.29.72.63,1.54.6,1.15-.04,2.72-.17,4.57-.37.73-.03,1.42-.08,1.96-.14l1.37-.05c.65.02,1.35.03,2.1,0,.86.06,2.29.1,4.42.13,1.11-.04,1.95-.76,2.14-1.83.14-.78-.17-1.28-.37-1.5-.24-.28-.7-.61-1.45-.59h0c-2.04.02-2.81-.08-3.06-.12,0,0-.09-.09-.17-.43-.08-.36-.15-1.34.3-3.9.6-3.72,1.36-8.16,2.26-13.3.71-4.05,1.3-7.12,1.74-9.12.44-1.97.85-3.66,1.22-5l.21-.78c.14-.81-.18-1.32-.38-1.56-.25-.29-.72-.63-1.54-.6ZM10.63,53.67v.2s0,0,0,0v-.2s0,0,0,0Z"/>
    <path class="cls-1" d="M74.72,50.24c-2.04.07-2.79-.01-3.01-.04,0,0-.08-.09-.14-.4-.07-.37-.12-1.37.33-3.92l2.64-15.09c.91-5.2.32-9.1-1.77-11.59-2.09-2.5-5.77-3.68-10.91-3.5-3.83.13-7.29,1.07-10.28,2.77-1.82,1.04-3.49,2.4-5.02,4.09.28-.93.59-1.85.92-2.76l.3-.93.05-.19c.14-.81-.18-1.32-.38-1.55-.25-.29-.72-.63-1.54-.6-.63.02-1.28.35-2.02,1.01-.98.83-2.11,1.54-3.42,2.11-.98.47-2.24.91-3.68,1.3-.66.14-1.13.29-1.51.48-.89.45-1.13,1.13-1.19,1.49-.12.69.19,1.34.77,1.69.36.23.79.34,1.24.32,2.24-.08,3.11-.06,3.43-.03h.02c0,.17-.01.48-.1,1l-3.64,20.75s0,0,0,0h0c-.43,2.44-.84,3.52-1.11,4-.19.33-.47.74-.79.82-.39.1-1.26.23-3.21.29-1.03.04-1.81.72-1.99,1.75-.14.78.12,1.29.37,1.57.24.28.7.61,1.48.59,1.2-.04,2.77-.17,4.57-.37.78-.03,1.47-.08,1.96-.14l1.43-.05c.63.03,1.3.02,1.9,0,2.46.05,4.88.06,7.21.03,1.11-.04,1.96-.76,2.14-1.83.14-.78-.17-1.28-.37-1.5-.24-.28-.7-.61-1.49-.59l-1.71.06c-2.1.02-3.09-.11-3.55-.21-.21-.05-.4-.13-.5-.57-.09-.37-.17-1.32.22-3.6l1.78-10.15c.84-4.78,2.7-8.62,5.54-11.41,2.84-2.79,6.21-4.21,10.3-4.35,2.49-.09,4.41.2,5.68.86,1.14.59,1.86,1.57,2.2,2.99.38,1.61.32,3.88-.18,6.75l-2.46,14.06c-.34,2.24-.74,3.27-1.02,3.73-.31.52-.68.83-1.18.97-.51.14-1.57.33-3.74.41l-1.6.06c-1.07.04-1.88.73-2.06,1.75-.14.81.17,1.32.37,1.55.25.29.72.63,1.55.6,2.59-.09,5.07-.25,7.29-.46.64-.02,1.28-.07,1.83-.14l1.22-.05c.61.02,1.28.03,1.99,0,1.87.07,3.4.09,4.55.05s1.95-.75,2.14-1.83c.14-.78-.17-1.28-.37-1.5-.24-.28-.7-.61-1.49-.59Z"/>
    <path class="cls-1" d="M100.58,19.23c.82.02,2.25,0,4.39-.08,2.09-.07,2.5-1.48,2.57-1.91.1-.6-.03-1.15-.39-1.56-.4-.46-1-.68-1.81-.66l-5.68.27c-2.15.13-3.12.16-3.55.16-.01,0-.03,0-.04,0,0-.02,0-.04.01-.07.1-.58.44-1.83,1.44-4.42.33-.82.63-1.6.92-2.39.17-.55.22-.95.17-1.33-.04-.26-.27-1.12-1.41-1.34l-.15-.02c-.53-.04-1.52.07-2.38,1.29-1.09,1.84-2.02,3.31-2.75,4.39-.66.98-1.51,1.89-2.53,2.71-.96.77-2.09,1.35-3.38,1.72-.17.04-.33.09-.45.15-.37.14-.69.29-.98.48-.49.34-.82.83-.92,1.39-.11.63.08,1.23.5,1.63.38.37.9.54,1.55.52l.84-.03c1.07-.04,1.66-.03,2.01,0,0,.19-.03.49-.11.95l-3.86,22-.36,2.12h.09c-.2,2.57.19,4.49,1.17,5.86,1.29,1.78,3.61,2.63,6.89,2.52,2.3-.08,4.28-.91,5.89-2.47,1.53-1.47,2.77-3.63,3.79-6.59.11-.24.18-.44.19-.53.2-.75.26-1.18.22-1.51-.07-.73-.65-1.45-1.79-1.41-.69.02-1.3.33-1.7.85-.27.35-.48.81-.65,1.45-.68,2.18-1.41,3.2-1.9,3.67-.63.61-1.54.93-2.78.97-1.84.06-2.11-.66-2.22-.97-.22-.59-.47-2.19.25-6.31l3.49-19.9c.15-.87.35-1.11.35-1.11h0s.19-.18.91-.29c.7-.11,2.1-.18,4.12-.21Z"/>
    <path class="cls-1" d="M140.7,34.84c-.75.03-1.39.4-1.77,1.03-.19.32-.39.8-.65,1.63-.67,2.62-2.14,4.69-4.5,6.33-2.4,1.67-5.33,2.57-8.71,2.69-4.07.14-7-.91-8.95-3.21-1.95-2.3-2.68-5.67-2.17-10.02.1-.8.19-1.18.24-1.35.02,0,.04-.01.06-.02.16-.05.69-.16,2.17-.21l23.9-.69c1.54-.05,2.56-.36,3.2-.96.66-.63.99-1.69,1.05-3.39.22-2.78-.33-5.26-1.64-7.38-1.3-2.09-3.2-3.71-5.63-4.82-2.38-1.08-5.17-1.58-8.29-1.47-3.7.13-7.19,1.12-10.38,2.95-3.18,1.83-5.86,4.35-7.95,7.5-2.08,3.14-3.43,6.67-4,10.48-.58,3.85-.31,7.24.79,10.06,1.13,2.89,3.05,5.1,5.71,6.57,2.6,1.43,5.85,2.09,9.66,1.96,4.82-.17,8.96-1.5,12.3-3.95,3.37-2.47,5.74-5.93,7.05-10.29l.14-.39c.18-.66.24-1.16.19-1.58-.11-.92-.84-1.52-1.81-1.48ZM128.43,16.57c3.12-.11,5.41.64,7,2.28,1.57,1.63,2.19,3.82,1.89,6.74-.05.78-.15,1.07-.14,1.1-.02.01-.09.04-.21.07-.31.07-1.03.17-2.68.28l-17.66.83c-.77.03-1.18-.03-1.37-.07.03-.23.1-.64.29-1.31.99-3.01,2.65-5.42,4.93-7.15,2.28-1.73,4.96-2.66,7.95-2.77Z"/>
    <path class="cls-1" d="M177.25,12.75c-.69-.64-1.62-.96-2.71-.92-3.03.11-5.95,1.04-8.7,2.78-1.74,1.11-3.38,2.5-4.9,4.17.29-.99.61-1.96.97-2.91l.3-.93.05-.19c.14-.81-.18-1.32-.38-1.56-.25-.29-.72-.63-1.54-.6-.63.02-1.28.35-2.02,1.01-.98.83-2.11,1.54-3.42,2.11-.98.47-2.24.91-3.68,1.3-.66.14-1.13.29-1.51.48-.89.45-1.13,1.13-1.19,1.49-.12.69.19,1.34.78,1.69.36.22.79.33,1.23.32,2.24-.08,3.1-.06,3.43-.03,0,0,.02,0,.03,0,0,.17-.01.48-.1.99l-3.36,19.21-.34,1.55c-.43,2.43-.85,3.51-1.13,3.98-.16.28-.49.76-.84.85-.39.1-1.26.23-3.21.29-1.03.04-1.81.72-1.99,1.75-.14.78.12,1.29.37,1.57.24.28.7.61,1.48.59,1.2-.04,2.77-.17,4.57-.37.78-.03,1.47-.08,1.96-.14l1.12-.04c.99.01,1.95.05,2.78-.03,3.26.03,6.71-.02,10.27-.15,2.02-.07,2.42-1.42,2.49-1.84.1-.55-.04-1.06-.37-1.44-.39-.45-.98-.66-1.77-.63l-2.23.08c-2.6.09-4.46.06-5.52-.1-.93-.14-1.21-.49-1.33-.75-.12-.25-.36-1.07.06-3.43l1.52-9.07c.87-4.97,2.38-8.75,4.47-11.22,2.02-2.39,4.54-3.6,7.69-3.71.49-.02,1.21.02,2.12.12.65.08,1.15.12,1.52.1.92-.03,1.8-.4,2.52-1.05.74-.66,1.2-1.48,1.37-2.46.26-1.47-.33-2.37-.86-2.87Z"/>
    <path class="cls-1" d="M59.87,76.92v-3.9l-3.98.14v-3.98l-3.98.14-3.9.14v-3.9l-3.91.14-4.05.14-3.83.13-3.9.14-4.05.14-3.83.13v3.9l-3.98.14-3.98.14v3.98l-3.9.14v7.88l-3.91.14v27.55l3.91-.14v7.88l3.9-.14v3.98l3.98-.14,3.98-.14v3.9l3.83-.13,4.05-.14,3.9-.14,3.83-.13,4.05-.14,3.91-.14,3.9-.14,3.98-.14,3.98-.14v-3.9l3.83-.13v-7.96l-3.83.13v-3.9l3.83-.13v-27.55l-3.83.13v-3.98ZM36.15,101.39h-.15s-3.68.13-3.68.13v-3.98l-3.91.14v-3.91l3.91-.14v-3.98l3.68-.13h.22s3.83-.14,3.83-.14v3.9l4.05-.14v4.05l-4.05.14v3.9l-3.9.14ZM55.89,84.94v19.74l-3.98.14v-23.64l-3.9.14-3.91.14v3.91l-4.05.14v-3.98l-3.83.13-3.9.14-4.05.14v3.98l-3.83.13v3.9l-3.98.14v11.86l3.98-.14v3.9l3.83-.13v3.98l4.05-.14,3.9-.14,3.83-.13v-3.98l4.05-.14v3.98l3.91-.14v3.98l3.9-.14h.07s3.91-.14,3.91-.14l3.98-.14v3.9l-3.98.14-3.98.14-3.9.14-3.91.14-4.05.14-3.83.13-3.9.14-3.91.14v-3.98l-3.98.14-3.98.14h-.07s0-3.9,0-3.9v-3.98l-3.9.14v-19.59l3.9-.14v-7.96h.07s3.98-.14,3.98-.14l3.98-.14v-3.98l3.91-.14,3.9-.14,3.83-.13,3.98-.14v3.98l3.9-.14,3.98-.14v3.98l3.98-.14v3.91Z"/>
    <polygon class="cls-1" points="114.2 66.09 108.58 66.29 108.58 60.77 80.57 61.75 80.57 67.27 74.94 67.46 74.94 73.09 69.32 73.28 69.32 101.3 74.94 101.1 74.94 106.72 80.57 106.53 80.57 112.15 108.58 111.17 108.58 105.55 114.2 105.35 114.2 99.73 119.83 99.53 119.83 88.39 108.58 88.78 108.58 94.41 102.95 94.6 102.95 100.22 86.19 100.81 86.19 95.19 80.57 95.38 80.57 78.41 86.19 78.21 86.19 72.59 102.95 72 102.95 77.63 108.58 77.43 108.58 83.05 119.83 82.66 119.83 71.52 114.2 71.72 114.2 66.09"/>
    <polygon class="cls-1" points="170.69 75.04 165.02 75.24 165.02 69.67 136.78 70.66 136.78 76.22 131.11 76.42 131.11 82.09 125.44 82.29 125.44 110.53 131.11 110.33 131.11 116 136.78 115.8 136.78 121.47 165.02 120.49 165.02 114.82 170.69 114.62 170.69 108.95 176.36 108.75 176.36 97.52 165.02 97.91 165.02 103.58 159.35 103.78 159.35 109.45 142.45 110.04 142.45 104.37 136.78 104.57 136.78 87.46 142.45 87.26 142.45 81.59 159.35 81 159.35 86.67 165.02 86.47 165.02 92.14 176.36 91.74 176.36 80.51 170.69 80.71 170.69 75.04"/>
    <polygon class="cls-1" points="181.74 58.22 192.98 57.82 192.98 46.03 181.74 46.43 181.74 58.22"/>
    <polygon class="cls-1" points="181.74 114.07 192.98 113.68 192.98 64.94 181.74 65.33 181.74 114.07"/>
    <path class="cls-1" d="M243.75,72.54l-5.56.19v-5.56l-28.35.99v5.56l-5.56.19v5.67l-5.67.2v28.24l5.67-.2v5.67l5.56-.19v5.67l28.35-.99v-5.67l5.56-.19v-5.67l5.67-.2v-28.24l-5.67.2v-5.67ZM238.08,100.98l-5.56.19v5.67l-17.01.59v-5.67l-5.56.19v-16.9l5.56-.19v-5.67l17.01-.59v5.67l5.56-.19v16.9Z"/>
    <polygon class="cls-1" points="290.46 65.37 285.39 65.55 285.39 60.58 270.29 61.1 270.29 66.08 265.22 66.25 265.22 61.28 255.08 61.63 255.08 111.51 265.22 111.15 265.22 76.39 270.29 76.21 270.29 71.14 280.33 70.79 280.33 75.86 285.39 75.68 285.39 110.45 295.53 110.1 295.53 70.26 290.46 70.44 290.46 65.37"/>
    <polygon class="cls-1" points="341.93 83.65 341.93 73.52 336.92 73.7 336.92 68.59 331.81 68.77 331.81 63.75 311.37 64.47 311.37 69.48 306.27 69.66 306.27 74.77 301.16 74.95 301.16 85.16 306.27 84.99 306.27 90.09 316.48 89.74 316.48 94.85 326.7 94.49 326.7 99.5 331.81 99.33 331.81 104.43 316.48 104.97 316.48 99.86 311.37 100.04 311.37 94.93 301.25 95.28 301.25 105.5 306.27 105.33 306.27 110.44 311.37 110.26 311.37 115.37 331.81 114.65 331.81 109.54 336.92 109.36 336.92 104.26 341.93 104.08 341.93 93.96 336.92 94.13 336.92 89.02 326.7 89.38 326.7 84.27 316.48 84.63 316.48 79.52 311.37 79.7 311.37 74.5 326.7 73.96 326.7 79.07 331.81 78.89 331.81 84 341.93 83.65"/>
  </g>
</svg>
