<?xml version="1.0" encoding="UTF-8"?>
<svg id="Capa_1" xmlns="http://www.w3.org/2000/svg" viewBox="0 0 352.12 136.12">
  <defs>
    <style>
      .cls-1 {
        fill: #f9dbb2;
      }

      .cls-2 {
        fill: #232323;
      }
    </style>
  </defs>
  <g>
    <path class="cls-1" d="M30.66,12.44c-.5-.62-1.43-1.36-3.08-1.3-1.26.04-2.37.49-3.3,1.32-.93.83-1.51,1.88-1.73,3.14-.3,1.7.25,2.74.75,3.3.73.83,1.78,1.22,3.12,1.18,1.25-.04,2.34-.46,3.23-1.23.91-.77,1.48-1.81,1.7-3.09.23-1.34,0-2.46-.7-3.33Z"/>
    <path class="cls-1" d="M28.17,24.36c-.43.01-.85.15-1.25.39-.29.17-.57.38-.81.6-.99.81-2.15,1.52-3.42,2.12-1.26.57-2.51.99-3.74,1.26-.48.12-.92.26-1.31.43-1,.43-1.27,1.14-1.33,1.53-.1.56.03,1.08.37,1.47.37.43.92.64,1.63.61,2.23-.08,3.1-.06,3.43-.03h.02c0,.17-.01.48-.1,1l-.27,1.56c-.4,2.32-.89,5.16-1.46,8.54-.57,3.38-1.21,6.96-1.9,10.65-.43,2.45-.84,3.53-1.11,4-.26.47-.54.76-.77.82-.3.08-1.11.22-3.16.29-1.07.04-1.88.73-2.06,1.75-.14.81.17,1.32.37,1.56.25.29.72.63,1.54.6,1.15-.04,2.72-.17,4.57-.37.73-.03,1.42-.08,1.96-.14l1.37-.05c.65.02,1.35.03,2.1,0,.86.06,2.29.1,4.42.13,1.11-.04,1.95-.76,2.14-1.83.14-.78-.17-1.28-.37-1.5-.24-.28-.7-.61-1.45-.59h0c-2.04.02-2.81-.08-3.06-.12,0,0-.09-.09-.17-.43-.08-.36-.15-1.34.3-3.9.6-3.72,1.36-8.16,2.26-13.3.71-4.05,1.3-7.12,1.74-9.12.44-1.97.85-3.66,1.22-5l.21-.78c.14-.81-.18-1.32-.38-1.56-.25-.29-.72-.63-1.54-.6ZM12.84,60.8v.2s0,0,0,0v-.2s0,0,0,0Z"/>
    <path class="cls-1" d="M76.93,57.36c-2.04.07-2.79-.01-3.01-.04,0,0-.08-.09-.14-.4-.07-.37-.12-1.37.33-3.92l2.64-15.09c.91-5.2.32-9.1-1.77-11.59-2.09-2.5-5.77-3.68-10.91-3.5-3.83.13-7.29,1.07-10.28,2.77-1.82,1.04-3.49,2.4-5.02,4.09.28-.93.59-1.85.92-2.76l.3-.93.05-.19c.14-.81-.18-1.32-.38-1.55-.25-.29-.72-.63-1.54-.6-.63.02-1.28.35-2.02,1.01-.98.83-2.11,1.54-3.42,2.11-.98.47-2.24.91-3.68,1.3-.66.14-1.13.29-1.51.48-.89.45-1.13,1.13-1.19,1.49-.12.69.19,1.34.77,1.69.36.23.79.34,1.24.32,2.24-.08,3.11-.06,3.43-.03h.02c0,.17-.01.48-.1,1l-3.64,20.75s0,0,0,0h0c-.43,2.44-.84,3.52-1.11,4-.19.33-.47.74-.79.82-.39.1-1.26.23-3.21.29-1.03.04-1.81.72-1.99,1.75-.14.78.12,1.29.37,1.57.24.28.7.61,1.48.59,1.2-.04,2.77-.17,4.57-.37.78-.03,1.47-.08,1.96-.14l1.43-.05c.63.03,1.3.02,1.9,0,2.46.05,4.88.06,7.21.03,1.11-.04,1.96-.76,2.14-1.83.14-.78-.17-1.28-.37-1.5-.24-.28-.7-.61-1.49-.59l-1.71.06c-2.1.02-3.09-.11-3.55-.21-.21-.05-.4-.13-.5-.57-.09-.37-.17-1.32.22-3.6l1.78-10.15c.84-4.78,2.7-8.62,5.54-11.41,2.84-2.79,6.21-4.21,10.3-4.35,2.49-.09,4.41.2,5.68.86,1.14.59,1.86,1.57,2.2,2.99.38,1.61.32,3.88-.18,6.75l-2.46,14.06c-.34,2.24-.74,3.27-1.02,3.73-.31.52-.68.83-1.18.97-.51.14-1.57.33-3.74.41l-1.6.06c-1.07.04-1.88.73-2.06,1.75-.14.81.17,1.32.37,1.55.25.29.72.63,1.55.6,2.59-.09,5.07-.25,7.29-.46.64-.02,1.28-.07,1.83-.14l1.22-.05c.61.02,1.28.03,1.99,0,1.87.07,3.4.09,4.55.05s1.95-.75,2.14-1.83c.14-.78-.17-1.28-.37-1.5-.24-.28-.7-.61-1.49-.59Z"/>
    <path class="cls-1" d="M102.79,26.36c.82.02,2.25,0,4.39-.08s2.5-1.48,2.57-1.91c.1-.6-.03-1.15-.39-1.56-.4-.46-1-.68-1.81-.66l-5.68.27c-2.15.13-3.12.16-3.55.16-.01,0-.03,0-.04,0,0-.02,0-.04.01-.07.1-.58.44-1.83,1.44-4.42.33-.82.63-1.6.92-2.39.17-.55.22-.95.17-1.33-.04-.26-.27-1.12-1.41-1.34l-.15-.02c-.53-.04-1.52.07-2.38,1.29-1.09,1.84-2.02,3.31-2.75,4.39-.66.98-1.51,1.89-2.53,2.71-.96.77-2.09,1.35-3.38,1.72-.17.04-.33.09-.45.15-.37.14-.69.29-.98.48-.49.34-.82.83-.92,1.39-.11.63.08,1.23.5,1.63.38.37.9.54,1.55.52l.84-.03c1.07-.04,1.66-.03,2.01,0,0,.19-.03.49-.11.95l-3.86,22-.36,2.12h.09c-.2,2.57.19,4.49,1.17,5.86,1.29,1.78,3.61,2.63,6.89,2.52,2.3-.08,4.28-.91,5.89-2.47,1.53-1.47,2.77-3.63,3.79-6.59.11-.24.18-.44.19-.53.2-.75.26-1.18.22-1.51-.07-.73-.65-1.45-1.79-1.41-.69.02-1.3.33-1.7.85-.27.35-.48.81-.65,1.45-.68,2.18-1.41,3.2-1.9,3.67-.63.61-1.54.93-2.78.97-1.84.06-2.11-.66-2.22-.97-.22-.59-.47-2.19.25-6.31l3.49-19.9c.15-.87.35-1.11.35-1.11h0s.19-.18.91-.29c.7-.11,2.1-.18,4.12-.21Z"/>
    <path class="cls-1" d="M142.91,41.97c-.75.03-1.39.4-1.77,1.03-.19.32-.39.8-.65,1.63-.67,2.62-2.14,4.69-4.5,6.33-2.4,1.67-5.33,2.57-8.71,2.69-4.07.14-7-.91-8.95-3.21-1.95-2.3-2.68-5.67-2.17-10.02.1-.8.19-1.18.24-1.35.02,0,.04-.01.06-.02.16-.05.69-.16,2.17-.21l23.9-.69c1.54-.05,2.56-.36,3.2-.96.66-.63.99-1.69,1.05-3.39.22-2.78-.33-5.26-1.64-7.38-1.3-2.09-3.2-3.71-5.63-4.82-2.38-1.08-5.17-1.58-8.29-1.47-3.7.13-7.19,1.12-10.38,2.95-3.18,1.83-5.86,4.35-7.95,7.5-2.08,3.14-3.43,6.67-4,10.48-.58,3.85-.31,7.24.79,10.06,1.13,2.89,3.05,5.1,5.71,6.57,2.6,1.43,5.85,2.09,9.66,1.96,4.82-.17,8.96-1.5,12.3-3.95,3.37-2.47,5.74-5.93,7.05-10.29l.14-.39c.18-.66.24-1.16.19-1.58-.11-.92-.84-1.52-1.81-1.48ZM130.64,23.7c3.12-.11,5.41.64,7,2.28,1.57,1.63,2.19,3.82,1.89,6.74-.05.78-.15,1.07-.14,1.1-.02.01-.09.04-.21.07-.31.07-1.03.17-2.68.28l-17.66.83c-.77.03-1.18-.03-1.37-.07.03-.23.1-.64.29-1.31.99-3.01,2.65-5.42,4.93-7.15,2.28-1.73,4.96-2.66,7.95-2.77Z"/>
    <path class="cls-1" d="M179.46,19.88c-.69-.64-1.62-.96-2.71-.92-3.03.11-5.95,1.04-8.7,2.78-1.74,1.11-3.38,2.5-4.9,4.17.29-.99.61-1.96.97-2.91l.3-.93.05-.19c.14-.81-.18-1.32-.38-1.56-.25-.29-.72-.63-1.54-.6-.63.02-1.28.35-2.02,1.01-.98.83-2.11,1.54-3.42,2.11-.98.47-2.24.91-3.68,1.3-.66.14-1.13.29-1.51.48-.89.45-1.13,1.13-1.19,1.49-.12.69.19,1.34.78,1.69.36.22.79.33,1.23.32,2.24-.08,3.1-.06,3.43-.03,0,0,.02,0,.03,0,0,.17-.01.48-.1.99l-3.36,19.21-.34,1.55c-.43,2.43-.85,3.51-1.13,3.98-.16.28-.49.76-.84.85-.39.1-1.26.23-3.21.29-1.03.04-1.81.72-1.99,1.75-.14.78.12,1.29.37,1.57.24.28.7.61,1.48.59,1.2-.04,2.77-.17,4.57-.37.78-.03,1.47-.08,1.96-.14l1.12-.04c.99.01,1.95.05,2.78-.03,3.26.03,6.71-.02,10.27-.15,2.02-.07,2.42-1.42,2.49-1.84.1-.55-.04-1.06-.37-1.44-.39-.45-.98-.66-1.77-.63l-2.23.08c-2.6.09-4.46.06-5.52-.1-.93-.14-1.21-.49-1.33-.75-.12-.25-.36-1.07.06-3.43l1.52-9.07c.87-4.97,2.38-8.75,4.47-11.22,2.02-2.39,4.54-3.6,7.69-3.71.49-.02,1.21.02,2.12.12.65.08,1.15.12,1.52.1.92-.03,1.8-.4,2.52-1.05.74-.66,1.2-1.48,1.37-2.46.26-1.47-.33-2.37-.86-2.87Z"/>
    <path class="cls-1" d="M62.08,84.05v-3.9l-3.98.14v-3.98l-3.98.14-3.9.14v-3.9l-3.91.14-4.05.14-3.83.13-3.9.14-4.05.14-3.83.13v3.9l-3.98.14-3.98.14v3.98l-3.9.14v7.88l-3.91.14v27.55l3.91-.14v7.88l3.9-.14v3.98l3.98-.14,3.98-.14v3.9l3.83-.13,4.05-.14,3.9-.14,3.83-.13,4.05-.14,3.91-.14,3.9-.14,3.98-.14,3.98-.14v-3.9l3.83-.13v-7.96l-3.83.13v-3.9l3.83-.13v-27.55l-3.83.13v-3.98ZM38.37,108.52h-.15s-3.68.13-3.68.13v-3.98l-3.91.14v-3.91l3.91-.14v-3.98l3.68-.13h.22s3.83-.14,3.83-.14v3.9l4.05-.14v4.05l-4.05.14v3.9l-3.9.14ZM58.11,92.07v19.74l-3.98.14v-23.64l-3.9.14-3.91.14v3.91l-4.05.14v-3.98l-3.83.13-3.9.14-4.05.14v3.98l-3.83.13v3.9l-3.98.14v11.86l3.98-.14v3.9l3.83-.13v3.98l4.05-.14,3.9-.14,3.83-.13v-3.98l4.05-.14v3.98l3.91-.14v3.98l3.9-.14h.07s3.91-.14,3.91-.14l3.98-.14v3.9l-3.98.14-3.98.14-3.9.14-3.91.14-4.05.14-3.83.13-3.9.14-3.91.14v-3.98l-3.98.14-3.98.14h-.07s0-3.9,0-3.9v-3.98l-3.9.14v-19.59l3.9-.14v-7.96h.07s3.98-.14,3.98-.14l3.98-.14v-3.98l3.91-.14,3.9-.14,3.83-.13,3.98-.14v3.98l3.9-.14,3.98-.14v3.98l3.98-.14v3.91Z"/>
    <polygon class="cls-1" points="116.41 73.22 110.79 73.41 110.79 67.9 82.78 68.87 82.78 74.39 77.16 74.59 77.16 80.21 71.53 80.41 71.53 108.42 77.16 108.23 77.16 113.85 82.78 113.65 82.78 119.28 110.79 118.3 110.79 112.67 116.41 112.48 116.41 106.85 122.04 106.66 122.04 95.52 110.79 95.91 110.79 101.53 105.17 101.73 105.17 107.35 88.4 107.94 88.4 102.31 82.78 102.51 82.78 85.54 88.4 85.34 88.4 79.72 105.17 79.13 105.17 84.75 110.79 84.56 110.79 90.18 122.04 89.79 122.04 78.65 116.41 78.84 116.41 73.22"/>
    <polygon class="cls-1" points="172.9 82.16 167.23 82.36 167.23 76.8 138.99 77.78 138.99 83.35 133.32 83.55 133.32 89.22 127.66 89.41 127.66 117.66 133.32 117.46 133.32 123.13 138.99 122.93 138.99 128.6 167.23 127.61 167.23 121.94 172.9 121.74 172.9 116.08 178.57 115.88 178.57 104.64 167.23 105.04 167.23 110.71 161.57 110.91 161.57 116.58 144.66 117.17 144.66 111.5 138.99 111.7 138.99 94.58 144.66 94.38 144.66 88.71 161.57 88.12 161.57 93.79 167.23 93.6 167.23 99.27 178.57 98.87 178.57 87.64 172.9 87.83 172.9 82.16"/>
    <polygon class="cls-1" points="183.95 65.34 195.2 64.95 195.2 53.16 183.95 53.55 183.95 65.34"/>
    <polygon class="cls-1" points="183.95 121.2 195.2 120.8 195.2 72.06 183.95 72.45 183.95 121.2"/>
    <path class="cls-1" d="M245.96,79.67l-5.56.19v-5.56l-28.35.99v5.56l-5.56.19v5.67l-5.67.2v28.24l5.67-.2v5.67l5.56-.19v5.67l28.35-.99v-5.67l5.56-.19v-5.67l5.67-.2v-28.24l-5.67.2v-5.67ZM240.29,108.11l-5.56.19v5.67l-17.01.59v-5.67l-5.56.19v-16.9l5.56-.19v-5.67l17.01-.59v5.67l5.56-.19v16.9Z"/>
    <polygon class="cls-1" points="292.67 72.5 287.61 72.68 287.61 67.7 272.5 68.23 272.5 73.2 267.43 73.38 267.43 68.41 257.3 68.76 257.3 118.63 267.43 118.28 267.43 83.51 272.5 83.34 272.5 78.27 282.54 77.92 282.54 82.99 287.61 82.81 287.61 117.58 297.74 117.22 297.74 77.39 292.67 77.57 292.67 72.5"/>
    <polygon class="cls-1" points="344.14 90.77 344.14 80.65 339.13 80.83 339.13 75.72 334.02 75.9 334.02 70.88 313.58 71.59 313.58 76.61 308.48 76.79 308.48 81.9 303.37 82.07 303.37 92.29 308.48 92.11 308.48 97.22 318.69 96.86 318.69 101.97 328.91 101.62 328.91 106.63 334.02 106.45 334.02 111.56 318.69 112.1 318.69 106.99 313.58 107.17 313.58 102.06 303.46 102.41 303.46 112.63 308.48 112.45 308.48 117.56 313.58 117.38 313.58 122.49 334.02 121.78 334.02 116.67 339.13 116.49 339.13 111.38 344.14 111.21 344.14 101.08 339.13 101.26 339.13 96.15 328.91 96.51 328.91 91.4 318.69 91.76 318.69 86.65 313.58 86.83 313.58 81.62 328.91 81.09 328.91 86.2 334.02 86.02 334.02 91.13 344.14 90.77"/>
  </g>
  <g>
    <path class="cls-2" d="M28.35,4.84c-.5-.62-1.43-1.36-3.08-1.3-1.26.04-2.37.49-3.3,1.32-.93.83-1.51,1.88-1.73,3.14-.3,1.7.25,2.74.75,3.3.73.83,1.78,1.22,3.12,1.18,1.25-.04,2.34-.46,3.23-1.23.91-.77,1.48-1.81,1.7-3.09.23-1.34,0-2.46-.7-3.33Z"/>
    <path class="cls-2" d="M25.86,16.76c-.43.01-.85.15-1.25.39-.29.17-.57.38-.81.6-.99.81-2.15,1.52-3.42,2.12-1.26.57-2.51.99-3.74,1.26-.48.12-.92.26-1.31.43-1,.43-1.27,1.14-1.33,1.53-.1.56.03,1.08.37,1.47.37.43.92.64,1.63.61,2.23-.08,3.1-.06,3.43-.03h.02c0,.17-.01.48-.1,1l-.27,1.56c-.4,2.32-.89,5.16-1.46,8.54-.57,3.38-1.21,6.96-1.9,10.65-.43,2.45-.84,3.53-1.11,4-.26.47-.54.76-.77.82-.3.08-1.11.22-3.16.29-1.07.04-1.88.73-2.06,1.75-.14.81.17,1.32.37,1.56.25.29.72.63,1.54.6,1.15-.04,2.72-.17,4.57-.37.73-.03,1.42-.08,1.96-.14l1.37-.05c.65.02,1.35.03,2.1,0,.86.06,2.29.1,4.42.13,1.11-.04,1.95-.76,2.14-1.83.14-.78-.17-1.28-.37-1.5-.24-.28-.7-.61-1.45-.59h0c-2.04.02-2.81-.08-3.06-.12,0,0-.09-.09-.17-.43-.08-.36-.15-1.34.3-3.9.6-3.72,1.36-8.16,2.26-13.3.71-4.05,1.3-7.12,1.74-9.12.44-1.97.85-3.66,1.22-5l.21-.78c.14-.81-.18-1.32-.38-1.56-.25-.29-.72-.63-1.54-.6ZM10.53,53.2v.2s0,0,0,0v-.2s0,0,0,0Z"/>
    <path class="cls-2" d="M74.62,49.76c-2.04.07-2.79-.01-3.01-.04,0,0-.08-.09-.14-.4-.07-.37-.12-1.37.33-3.92l2.64-15.09c.91-5.2.32-9.1-1.77-11.59-2.09-2.5-5.77-3.68-10.91-3.5-3.83.13-7.29,1.07-10.28,2.77-1.82,1.04-3.49,2.4-5.02,4.09.28-.93.59-1.85.92-2.76l.3-.93.05-.19c.14-.81-.18-1.32-.38-1.55-.25-.29-.72-.63-1.54-.6-.63.02-1.28.35-2.02,1.01-.98.83-2.11,1.54-3.42,2.11-.98.47-2.24.91-3.68,1.3-.66.14-1.13.29-1.51.48-.89.45-1.13,1.13-1.19,1.49-.12.69.19,1.34.77,1.69.36.23.79.34,1.24.32,2.24-.08,3.11-.06,3.43-.03h.02c0,.17-.01.48-.1,1l-3.64,20.75s0,0,0,0h0c-.43,2.44-.84,3.52-1.11,4-.19.33-.47.74-.79.82-.39.1-1.26.23-3.21.29-1.03.04-1.81.72-1.99,1.75-.14.78.12,1.29.37,1.57.24.28.7.61,1.48.59,1.2-.04,2.77-.17,4.57-.37.78-.03,1.47-.08,1.96-.14l1.43-.05c.63.03,1.3.02,1.9,0,2.46.05,4.88.06,7.21.03,1.11-.04,1.96-.76,2.14-1.83.14-.78-.17-1.28-.37-1.5-.24-.28-.7-.61-1.49-.59l-1.71.06c-2.1.02-3.09-.11-3.55-.21-.21-.05-.4-.13-.5-.57-.09-.37-.17-1.32.22-3.6l1.78-10.15c.84-4.78,2.7-8.62,5.54-11.41,2.84-2.79,6.21-4.21,10.3-4.35,2.49-.09,4.41.2,5.68.86,1.14.59,1.86,1.57,2.2,2.99.38,1.61.32,3.88-.18,6.75l-2.46,14.06c-.34,2.24-.74,3.27-1.02,3.73-.31.52-.68.83-1.18.97-.51.14-1.57.33-3.74.41l-1.6.06c-1.07.04-1.88.73-2.06,1.75-.14.81.17,1.32.37,1.55.25.29.72.63,1.55.6,2.59-.09,5.07-.25,7.29-.46.64-.02,1.28-.07,1.83-.14l1.22-.05c.61.02,1.28.03,1.99,0,1.87.07,3.4.09,4.55.05s1.95-.75,2.14-1.83c.14-.78-.17-1.28-.37-1.5-.24-.28-.7-.61-1.49-.59Z"/>
    <path class="cls-2" d="M100.48,18.76c.82.02,2.25,0,4.39-.08,2.09-.07,2.5-1.48,2.57-1.91.1-.6-.03-1.15-.39-1.56-.4-.46-1-.68-1.81-.66l-5.68.27c-2.15.13-3.12.16-3.55.16-.01,0-.03,0-.04,0,0-.02,0-.04.01-.07.1-.58.44-1.83,1.44-4.42.33-.82.63-1.6.92-2.39.17-.55.22-.95.17-1.33-.04-.26-.27-1.12-1.41-1.34l-.15-.02c-.53-.04-1.52.07-2.38,1.29-1.09,1.84-2.02,3.31-2.75,4.39-.66.98-1.51,1.89-2.53,2.71-.96.77-2.09,1.35-3.38,1.72-.17.04-.33.09-.45.15-.37.14-.69.29-.98.48-.49.34-.82.83-.92,1.39-.11.63.08,1.23.5,1.63.38.37.9.54,1.55.52l.84-.03c1.07-.04,1.66-.03,2.01,0,0,.19-.03.49-.11.95l-3.86,22-.36,2.12h.09c-.2,2.57.19,4.49,1.17,5.86,1.29,1.78,3.61,2.63,6.89,2.52,2.3-.08,4.28-.91,5.89-2.47,1.53-1.47,2.77-3.63,3.79-6.59.11-.24.18-.44.19-.53.2-.75.26-1.18.22-1.51-.07-.73-.65-1.45-1.79-1.41-.69.02-1.3.33-1.7.85-.27.35-.48.81-.65,1.45-.68,2.18-1.41,3.2-1.9,3.67-.63.61-1.54.93-2.78.97-1.84.06-2.11-.66-2.22-.97-.22-.59-.47-2.19.25-6.31l3.49-19.9c.15-.87.35-1.11.35-1.11h0s.19-.18.91-.29c.7-.11,2.1-.18,4.12-.21Z"/>
    <path class="cls-2" d="M140.6,34.36c-.75.03-1.39.4-1.77,1.03-.19.32-.39.8-.65,1.63-.67,2.62-2.14,4.69-4.5,6.33-2.4,1.67-5.33,2.57-8.71,2.69-4.07.14-7-.91-8.95-3.21-1.95-2.3-2.68-5.67-2.17-10.02.1-.8.19-1.18.24-1.35.02,0,.04-.01.06-.02.16-.05.69-.16,2.17-.21l23.9-.69c1.54-.05,2.56-.36,3.2-.96.66-.63.99-1.69,1.05-3.39.22-2.78-.33-5.26-1.64-7.38-1.3-2.09-3.2-3.71-5.63-4.82-2.38-1.08-5.17-1.58-8.29-1.47-3.7.13-7.19,1.12-10.38,2.95-3.18,1.83-5.86,4.35-7.95,7.5-2.08,3.14-3.43,6.67-4,10.48-.58,3.85-.31,7.24.79,10.06,1.13,2.89,3.05,5.1,5.71,6.57,2.6,1.43,5.85,2.09,9.66,1.96,4.82-.17,8.96-1.5,12.3-3.95,3.37-2.47,5.74-5.93,7.05-10.29l.14-.39c.18-.66.24-1.16.19-1.58-.11-.92-.84-1.52-1.81-1.48ZM128.34,16.1c3.12-.11,5.41.64,7,2.28,1.57,1.63,2.19,3.82,1.89,6.74-.05.78-.15,1.07-.14,1.1-.02.01-.09.04-.21.07-.31.07-1.03.17-2.68.28l-17.66.83c-.77.03-1.18-.03-1.37-.07.03-.23.1-.64.29-1.31.99-3.01,2.65-5.42,4.93-7.15,2.28-1.73,4.96-2.66,7.95-2.77Z"/>
    <path class="cls-2" d="M177.15,12.28c-.69-.64-1.62-.96-2.71-.92-3.03.11-5.95,1.04-8.7,2.78-1.74,1.11-3.38,2.5-4.9,4.17.29-.99.61-1.96.97-2.91l.3-.93.05-.19c.14-.81-.18-1.32-.38-1.56-.25-.29-.72-.63-1.54-.6-.63.02-1.28.35-2.02,1.01-.98.83-2.11,1.54-3.42,2.11-.98.47-2.24.91-3.68,1.3-.66.14-1.13.29-1.51.48-.89.45-1.13,1.13-1.19,1.49-.12.69.19,1.34.78,1.69.36.22.79.33,1.23.32,2.24-.08,3.1-.06,3.43-.03,0,0,.02,0,.03,0,0,.17-.01.48-.1.99l-3.36,19.21-.34,1.55c-.43,2.43-.85,3.51-1.13,3.98-.16.28-.49.76-.84.85-.39.1-1.26.23-3.21.29-1.03.04-1.81.72-1.99,1.75-.14.78.12,1.29.37,1.57.24.28.7.61,1.48.59,1.2-.04,2.77-.17,4.57-.37.78-.03,1.47-.08,1.96-.14l1.12-.04c.99.01,1.95.05,2.78-.03,3.26.03,6.71-.02,10.27-.15,2.02-.07,2.42-1.42,2.49-1.84.1-.55-.04-1.06-.37-1.44-.39-.45-.98-.66-1.77-.63l-2.23.08c-2.6.09-4.46.06-5.52-.1-.93-.14-1.21-.49-1.33-.75-.12-.25-.36-1.07.06-3.43l1.52-9.07c.87-4.97,2.38-8.75,4.47-11.22,2.02-2.39,4.54-3.6,7.69-3.71.49-.02,1.21.02,2.12.12.65.08,1.15.12,1.52.1.92-.03,1.8-.4,2.52-1.05.74-.66,1.2-1.48,1.37-2.46.26-1.47-.33-2.37-.86-2.87Z"/>
    <path class="cls-2" d="M59.78,76.45v-3.9l-3.98.14v-3.98l-3.98.14-3.9.14v-3.9l-3.91.14-4.05.14-3.83.13-3.9.14-4.05.14-3.83.13v3.9l-3.98.14-3.98.14v3.98l-3.9.14v7.88l-3.91.14v27.55l3.91-.14v7.88l3.9-.14v3.98l3.98-.14,3.98-.14v3.9l3.83-.13,4.05-.14,3.9-.14,3.83-.13,4.05-.14,3.91-.14,3.9-.14,3.98-.14,3.98-.14v-3.9l3.83-.13v-7.96l-3.83.13v-3.9l3.83-.13v-27.55l-3.83.13v-3.98ZM36.06,100.92h-.15s-3.68.13-3.68.13v-3.98l-3.91.14v-3.91l3.91-.14v-3.98l3.68-.13h.22s3.83-.14,3.83-.14v3.9l4.05-.14v4.05l-4.05.14v3.9l-3.9.14ZM55.8,84.47v19.74l-3.98.14v-23.64l-3.9.14-3.91.14v3.91l-4.05.14v-3.98l-3.83.13-3.9.14-4.05.14v3.98l-3.83.13v3.9l-3.98.14v11.86l3.98-.14v3.9l3.83-.13v3.98l4.05-.14,3.9-.14,3.83-.13v-3.98l4.05-.14v3.98l3.91-.14v3.98l3.9-.14h.07s3.91-.14,3.91-.14l3.98-.14v3.9l-3.98.14-3.98.14-3.9.14-3.91.14-4.05.14-3.83.13-3.9.14-3.91.14v-3.98l-3.98.14-3.98.14h-.07s0-3.9,0-3.9v-3.98l-3.9.14v-19.59l3.9-.14v-7.96h.07s3.98-.14,3.98-.14l3.98-.14v-3.98l3.91-.14,3.9-.14,3.83-.13,3.98-.14v3.98l3.9-.14,3.98-.14v3.98l3.98-.14v3.91Z"/>
    <polygon class="cls-2" points="114.11 65.62 108.48 65.81 108.48 60.3 80.47 61.27 80.47 66.79 74.85 66.99 74.85 72.61 69.22 72.81 69.22 100.82 74.85 100.63 74.85 106.25 80.47 106.05 80.47 111.68 108.48 110.7 108.48 105.07 114.11 104.88 114.11 99.25 119.73 99.06 119.73 87.91 108.48 88.31 108.48 93.93 102.86 94.13 102.86 99.75 86.1 100.34 86.1 94.71 80.47 94.91 80.47 77.94 86.1 77.74 86.1 72.11 102.86 71.53 102.86 77.15 108.48 76.96 108.48 82.58 119.73 82.19 119.73 71.05 114.11 71.24 114.11 65.62"/>
    <polygon class="cls-2" points="170.6 74.56 164.93 74.76 164.93 69.2 136.69 70.18 136.69 75.75 131.02 75.95 131.02 81.61 125.35 81.81 125.35 110.06 131.02 109.86 131.02 115.53 136.69 115.33 136.69 121 164.93 120.01 164.93 114.34 170.6 114.14 170.6 108.48 176.27 108.28 176.27 97.04 164.93 97.44 164.93 103.11 159.26 103.31 159.26 108.98 142.36 109.57 142.36 103.9 136.69 104.09 136.69 86.98 142.36 86.78 142.36 81.11 159.26 80.52 159.26 86.19 164.93 86 164.93 91.67 176.27 91.27 176.27 80.03 170.6 80.23 170.6 74.56"/>
    <polygon class="cls-2" points="181.64 57.74 192.89 57.35 192.89 45.56 181.64 45.95 181.64 57.74"/>
    <polygon class="cls-2" points="181.64 113.6 192.89 113.2 192.89 64.46 181.64 64.85 181.64 113.6"/>
    <path class="cls-2" d="M243.65,72.06l-5.56.19v-5.56l-28.35.99v5.56l-5.56.19v5.67l-5.67.2v28.24l5.67-.2v5.67l5.56-.19v5.67l28.35-.99v-5.67l5.56-.19v-5.67l5.67-.2v-28.24l-5.67.2v-5.67ZM237.98,100.51l-5.56.19v5.67l-17.01.59v-5.67l-5.56.19v-16.9l5.56-.19v-5.67l17.01-.59v5.67l5.56-.19v16.9Z"/>
    <polygon class="cls-2" points="290.37 64.9 285.3 65.08 285.3 60.1 270.19 60.63 270.19 65.6 265.13 65.78 265.13 60.81 254.99 61.16 254.99 111.03 265.13 110.68 265.13 75.91 270.19 75.74 270.19 70.67 280.23 70.32 280.23 75.39 285.3 75.21 285.3 109.98 295.43 109.62 295.43 69.79 290.37 69.97 290.37 64.9"/>
    <polygon class="cls-2" points="341.83 83.17 341.83 73.05 336.82 73.23 336.82 68.12 331.71 68.3 331.71 63.28 311.28 63.99 311.28 69.01 306.17 69.19 306.17 74.3 301.06 74.47 301.06 84.69 306.17 84.51 306.17 89.62 316.39 89.26 316.39 94.37 326.6 94.02 326.6 99.03 331.71 98.85 331.71 103.96 316.39 104.5 316.39 99.39 311.28 99.56 311.28 94.46 301.16 94.81 301.16 105.03 306.17 104.85 306.17 109.96 311.28 109.78 311.28 114.89 331.71 114.18 331.71 109.07 336.82 108.89 336.82 103.78 341.83 103.61 341.83 93.48 336.82 93.66 336.82 88.55 326.6 88.91 326.6 83.8 316.39 84.16 316.39 79.05 311.28 79.23 311.28 74.02 326.6 73.49 326.6 78.59 331.71 78.42 331.71 83.53 341.83 83.17"/>
  </g>
</svg>